<?xml version="1.0" encoding="UTF-8"?>
<svg version="1.1" xmlns="http://www.w3.org/2000/svg" width="806" height="230">
<path d="M0 0 C1 3 1 3 0.13671875 5.390625 C-7.78284284 21.01628291 -18.05067734 34.69952027 -29.83984375 47.62109375 C-32.31206222 50.34366346 -34.71463029 53.12058523 -37.1015625 55.91796875 C-69.89073115 91.87810639 -120.88628381 110.69076493 -168.57666016 113.83984375 C-170.2673676 113.95158101 -171.95715827 114.07771722 -173.64599609 114.21484375 C-202.05711511 116.47150117 -230.4879956 112.93718969 -258.34155273 107.41137695 C-261.37518374 106.87256397 -261.37518374 106.87256397 -266 107 C-267.485 114.425 -267.485 114.425 -269 122 C-224.7212846 132.3107647 -176.6158276 135.92834897 -132 125 C-131.08041504 124.77860352 -130.16083008 124.55720703 -129.21337891 124.32910156 C-105.24072155 118.46148311 -82.65933946 110.34800842 -61.12890625 98.27734375 C-60.30632324 97.81642334 -59.48374023 97.35550293 -58.63623047 96.88061523 C-57.03556481 95.97814621 -55.43930386 95.0678078 -53.84814453 94.14868164 C-53.12868652 93.7386792 -52.40922852 93.32867676 -51.66796875 92.90625 C-50.71313599 92.35420898 -50.71313599 92.35420898 -49.73901367 91.79101562 C-48 91 -48 91 -45 91 C-51.51009088 105.2543222 -71.21775316 115.09240063 -83.78271484 123.51171875 C-85.70202706 124.79999526 -87.61158659 126.10125371 -89.51953125 127.40625 C-125.06933189 151.13477473 -166.6840277 165.2933378 -209 170 C-210.17820312 170.13277344 -211.35640625 170.26554688 -212.5703125 170.40234375 C-236.1560837 172.60408454 -259.73104843 170.38758778 -282.86547852 165.67700195 C-292.71747712 163.33636904 -292.71747712 163.33636904 -302.37109375 165.1015625 C-303.05300781 165.60429687 -303.73492187 166.10703125 -304.4375 166.625 C-320.99211929 177.38932872 -342.61011935 180.48031099 -361.80078125 176.81640625 C-382.49619855 171.53515812 -399.86473509 159.74022386 -412 142 C-413.72366302 138.91575155 -415.39861885 135.82938009 -416.96875 132.6640625 C-421.27340869 127.01833706 -429.02200104 125.12989761 -435.58203125 123.01171875 C-436.38545456 122.74765228 -437.18887787 122.48358582 -438.01664734 122.21151733 C-440.61272278 121.36211513 -443.21215418 120.52373074 -445.8125 119.6875 C-446.70404785 119.39898163 -447.5955957 119.11046326 -448.51416016 118.8132019 C-462.5867476 114.26795669 -476.68802597 110.18915636 -491.06884766 106.72216797 C-493.82291922 106.0436286 -496.5576919 105.3166741 -499.29296875 104.56640625 C-532.60014192 95.55959405 -567.05631238 89.9422107 -601.42901611 87.20715332 C-603.27685178 87.05826663 -605.12426241 86.90406947 -606.97137451 86.74645996 C-623.83104342 85.31078816 -640.58030625 84.60182234 -657.5 84.625 C-658.66847473 84.62388214 -659.83694946 84.62276428 -661.04083252 84.62161255 C-683.15435851 84.63191638 -704.95357476 86.16484173 -726.9039917 88.75534058 C-730.60079106 89.18685452 -734.30049785 89.59241516 -738 90 C-738 89.01 -738 88.02 -738 87 C-659.21423789 51.4599157 -562.7183876 63.85653388 -484 93 C-462.95906583 101.13936417 -441.57993981 109.72861353 -422 121 C-422.04047127 107.73148638 -422.04047127 107.73148638 -427.40234375 96.1796875 C-430.42861563 94.45145807 -433.33763726 93.14575671 -436.59667969 91.94189453 C-439.30512634 90.88041676 -441.87114682 89.63358903 -444.4765625 88.33984375 C-521.2618792 50.57342224 -611.66675934 36.36506997 -694.69506836 60.4309082 C-697.51002364 61.12592576 -700.11423929 61.2339806 -703 61 C-700.01607697 57.64392028 -697.39649148 56.07568857 -693.21484375 54.484375 C-692.05831299 54.04182373 -690.90178223 53.59927246 -689.71020508 53.14331055 C-688.45308327 52.67766634 -687.195502 52.21326098 -685.9375 51.75 C-684.97485733 51.39066879 -684.97485733 51.39066879 -683.99276733 51.02407837 C-639.37520637 34.39809068 -590.83511567 23.89595952 -543 26 C-541.55947266 26.0616333 -541.55947266 26.0616333 -540.08984375 26.12451172 C-499.01272318 28.07729707 -455.47551941 35.40789462 -418.49902344 54.15551758 C-415.50843656 55.16611156 -413.96848231 55.01455245 -411 54 C-409.16905468 52.05462059 -407.60055334 50.18008183 -406 48.0625 C-391.80512811 30.41061926 -372.22350664 21.81444648 -350 19 C-327.79354516 17.56732549 -307.32042578 26.44218451 -290.70825195 40.60888672 C-275.72605782 53.93287485 -267.5956952 72.42813379 -266.3125 92.25 C-266.19731666 94.49946293 -266.08916487 96.74935558 -266 99 C-261.666852 99.17171834 -257.33346112 99.33638973 -253 99.5 C-251.79859375 99.54769531 -250.5971875 99.59539062 -249.359375 99.64453125 C-234.01939474 100.21570073 -218.8197165 100.01028229 -203.5 99.1875 C-202.67128387 99.1433194 -201.84256775 99.09913879 -200.98873901 99.05361938 C-149.41410285 96.24660478 -95.45369157 83.91124227 -53 53 C-52.39381836 52.56606934 -51.78763672 52.13213867 -51.16308594 51.68505859 C-34.14117978 39.46968281 -18.82895267 25.63308908 -6.7265625 8.42578125 C-4.62677632 5.47562917 -2.36747487 2.73739282 0 0 Z M-354 67 C-356.47040563 70.81607373 -356.43777562 74.85067071 -356.625 79.25 C-356.74875 81.8075 -356.8725 84.365 -357 87 C-362.94 87.33 -368.88 87.66 -375 88 C-375.8692771 93.90040127 -375.8692771 93.90040127 -376.1875 99.75 C-376.20167969 100.48734375 -376.21585937 101.2246875 -376.23046875 101.984375 C-376.11929312 104.31569695 -376.11929312 104.31569695 -374 107 C-371.06402461 107.38384509 -368.31972627 107.603843 -365.375 107.6875 C-364.57320313 107.72166016 -363.77140625 107.75582031 -362.9453125 107.79101562 C-360.96403682 107.87356878 -358.98203963 107.93845916 -357 108 C-356.09868141 111.80947934 -355.92232016 115.27923287 -356 119.1875 C-356.20486538 123.24938085 -356.20486538 123.24938085 -355 127 C-352.02077407 127.02683987 -349.04178705 127.04676037 -346.0625 127.0625 C-345.21236328 127.07087891 -344.36222656 127.07925781 -343.48632812 127.08789062 C-342.67744141 127.09111328 -341.86855469 127.09433594 -341.03515625 127.09765625 C-340.2862915 127.10289307 -339.53742676 127.10812988 -338.76586914 127.11352539 C-336.97332261 127.19341752 -336.97332261 127.19341752 -336 126 C-335.84417697 124.65984779 -335.74955858 123.31241097 -335.68359375 121.96484375 C-335.62075195 120.75151367 -335.62075195 120.75151367 -335.55664062 119.51367188 C-335.51732422 118.66353516 -335.47800781 117.81339844 -335.4375 116.9375 C-335.37272461 115.65649414 -335.37272461 115.65649414 -335.30664062 114.34960938 C-335.20023298 112.23327963 -335.09958269 110.11666187 -335 108 C-333.71222656 107.93941406 -332.42445313 107.87882812 -331.09765625 107.81640625 C-329.41925841 107.73201753 -327.74087364 107.6473687 -326.0625 107.5625 C-325.21236328 107.52318359 -324.36222656 107.48386719 -323.48632812 107.44335938 C-322.67744141 107.40146484 -321.86855469 107.35957031 -321.03515625 107.31640625 C-320.2862915 107.27974854 -319.53742676 107.24309082 -318.76586914 107.20532227 C-316.97538674 107.18228937 -316.97538674 107.18228937 -316 106 C-315.89997545 103.34346557 -315.86122537 100.71870728 -315.875 98.0625 C-315.87113281 97.32064453 -315.86726563 96.57878906 -315.86328125 95.81445312 C-315.78260332 91.77677122 -315.78260332 91.77677122 -317 88 C-322.94 87.67 -328.88 87.34 -335 87 C-335.33 80.73 -335.66 74.46 -336 68 C-339.18824568 66.40587716 -342.62896662 66.89825265 -346.125 66.9375 C-347.25615234 66.94426758 -347.25615234 66.94426758 -348.41015625 66.95117188 C-350.27347127 66.96296501 -352.13674555 66.98090058 -354 67 Z " fill="#52D0F8" transform="translate(760,28)"/>
<path d="M0 0 C1.44052734 0.0616333 1.44052734 0.0616333 2.91015625 0.12451172 C45.74086738 2.16066187 92.12591717 9.9287303 130 31 C129.76925781 31.6084375 129.53851563 32.216875 129.30078125 32.84375 C128.16916085 35.88525936 127.08116071 38.94017657 126 42 C125.5565625 43.23105469 125.113125 44.46210937 124.65625 45.73046875 C121.38201469 55.20565656 120.1464149 63.99054476 120 74 C118.97132813 73.35998047 118.97132813 73.35998047 117.921875 72.70703125 C41.09527984 26.81922503 -56.19195378 10.79627928 -143 32 C-145.90565345 32.78726385 -148.80367874 33.59283604 -151.69506836 34.4309082 C-154.51002364 35.12592576 -157.11423929 35.2339806 -160 35 C-157.01607697 31.64392028 -154.39649148 30.07568857 -150.21484375 28.484375 C-149.05831299 28.04182373 -147.90178223 27.59927246 -146.71020508 27.14331055 C-145.45308327 26.67766634 -144.195502 26.21326098 -142.9375 25.75 C-142.29573822 25.51044586 -141.65397644 25.27089172 -140.99276733 25.02407837 C-96.37520637 8.39809068 -47.83511567 -2.10404048 0 0 Z " fill="#02AEFA" transform="translate(217,54)"/>
<path d="M0 0 C-6.51009088 14.2543222 -26.21775316 24.09240063 -38.78271484 32.51171875 C-40.70202706 33.79999526 -42.61158659 35.10125371 -44.51953125 36.40625 C-80.06933189 60.13477473 -121.6840277 74.2933378 -164 79 C-165.17820312 79.13277344 -166.35640625 79.26554687 -167.5703125 79.40234375 C-193.87769538 81.85814803 -227.51232112 81.51774993 -252 71 C-249.00523841 67.42089468 -246.0634654 64.02890275 -242.625 60.875 C-235.21058054 53.55878478 -230.60326725 43.63294033 -226.32421875 34.265625 C-225 32 -225 32 -222 31 C-219.09222772 31.68347637 -216.24697973 32.43881317 -213.375 33.25 C-201.39104305 36.43952859 -189.32436354 37.83793893 -177 39 C-176.26362305 39.07202637 -175.52724609 39.14405273 -174.76855469 39.21826172 C-170.18298852 39.64808729 -165.60230949 39.874509 -161 40 C-159.61482178 40.04084717 -159.61482178 40.04084717 -158.20166016 40.08251953 C-134.64475635 40.67470099 -109.97632862 39.62789823 -87 34 C-86.08041504 33.77860352 -85.16083008 33.55720703 -84.21337891 33.32910156 C-60.24072155 27.46148311 -37.65933946 19.34800842 -16.12890625 7.27734375 C-15.30632324 6.81642334 -14.48374023 6.35550293 -13.63623047 5.88061523 C-12.03556481 4.97814621 -10.43930386 4.0678078 -8.84814453 3.14868164 C-7.76895752 2.53367798 -7.76895752 2.53367798 -6.66796875 1.90625 C-6.03141357 1.53822266 -5.3948584 1.17019531 -4.73901367 0.79101562 C-3 0 -3 0 0 0 Z " fill="#0192FA" transform="translate(715,119)"/>
<path d="M0 0 C1 3 1 3 0.13671875 5.390625 C-7.78284284 21.01628291 -18.05067734 34.69952027 -29.83984375 47.62109375 C-32.31206222 50.34366346 -34.71463029 53.12058523 -37.1015625 55.91796875 C-42.26627725 61.5821518 -47.70918231 66.61245959 -53.8125 71.25 C-54.53735596 71.80212158 -55.26221191 72.35424316 -56.0090332 72.9230957 C-61.40079374 76.95695702 -66.95168438 80.66196199 -72.6875 84.1875 C-73.42911377 84.64479492 -74.17072754 85.10208984 -74.93481445 85.57324219 C-78.86271071 87.92738017 -82.55759554 89.74773166 -87 91 C-86.67 90.34 -86.34 89.68 -86 89 C-85.34 89 -84.68 89 -84 89 C-84 88.34 -84 87.68 -84 87 C-85.98 87.495 -85.98 87.495 -88 88 C-88 86.35 -88 84.7 -88 83 C-89.98 83.495 -89.98 83.495 -92 84 C-92.66 82.68 -93.32 81.36 -94 80 C-100.435 80.99 -100.435 80.99 -107 82 C-104.91732856 79.91732856 -103.5714253 79.27737745 -100.87890625 78.1875 C-99.61324829 77.66530884 -99.61324829 77.66530884 -98.32202148 77.13256836 C-96.95605835 76.57194702 -96.95605835 76.57194702 -95.5625 76 C-80.59619543 69.7116043 -66.18769189 62.53203637 -53 53 C-52.39091797 52.56461914 -51.78183594 52.12923828 -51.15429688 51.68066406 C-34.1364231 39.46635761 -18.82658219 25.62971871 -6.7265625 8.42578125 C-4.62677632 5.47562917 -2.36747487 2.73739282 0 0 Z " fill="#50D0F3" transform="translate(760,28)"/>
<path d="M0 0 C10.5712003 1.67521753 19.0878089 8.19440905 27 15 C27.61359375 15.46921875 28.2271875 15.9384375 28.859375 16.421875 C41.84573678 26.54885437 50.50131071 43.92843052 53 60 C53.52931835 64.98965829 53.8013858 69.98670372 54 75 C58.333148 75.17171834 62.66653888 75.33638973 67 75.5 C68.20140625 75.54769531 69.4028125 75.59539062 70.640625 75.64453125 C85.98174416 76.21574313 101.17922824 76.00332477 116.5 75.1875 C117.32273407 75.14498108 118.14546814 75.10246216 118.99313354 75.05865479 C132.03476622 74.37360783 144.91437701 73.22233622 157.83227539 71.24365234 C160.23652878 70.97341415 162.58260523 70.96020968 165 71 C155.69784361 77.20143759 139.85183441 75.89959202 128.87255859 76.67724609 C126.46386372 76.84993783 124.05620776 77.03367538 121.6484375 77.21875 C120.90894867 77.26777466 120.16945984 77.31679932 119.40756226 77.36730957 C115.25393076 77.59267354 115.25393076 77.59267354 112 80 C109.3203125 80.16015625 109.3203125 80.16015625 106.125 80.0625 C102.47677608 79.95941751 99.5151392 80.11219277 96 81 C93.74609375 80.9140625 93.74609375 80.9140625 91.4375 80.625 C90.67308594 80.53476563 89.90867187 80.44453125 89.12109375 80.3515625 C87 80 87 80 84 79 C83.319375 79.144375 82.63875 79.28875 81.9375 79.4375 C77.63337837 80.2616935 73.36925574 80.07635593 69 80 C69 80.66 69 81.32 69 82 C69.99 82 70.98 82 72 82 C72 82.66 72 83.32 72 84 C72.76666992 83.98952637 73.53333984 83.97905273 74.32324219 83.96826172 C77.79879474 83.92667301 81.27429491 83.90066449 84.75 83.875 C86.55984375 83.84986328 86.55984375 83.84986328 88.40625 83.82421875 C89.56640625 83.81777344 90.7265625 83.81132812 91.921875 83.8046875 C92.99018555 83.79421387 94.05849609 83.78374023 95.15917969 83.77294922 C98.02987898 84.00238806 99.49555295 84.69744914 102 86 C104.3400417 85.71758117 106.67504723 85.38749213 109 85 C109.66 85.33 110.32 85.66 111 86 C113.50686002 86.28460911 115.98565601 86.51126093 118.5 86.6875 C119.18964844 86.74744141 119.87929688 86.80738281 120.58984375 86.86914062 C122.38920788 86.99716556 124.1960978 87.00620609 126 87 C126.66 86.34 127.32 85.68 128 85 C128.99 86.485 128.99 86.485 130 88 C130 87.34 130 86.68 130 86 C132.3125 85.375 132.3125 85.375 135 85 C135.99 85.66 136.98 86.32 138 87 C139.92888103 86.80046058 141.85807746 86.58813138 143.7734375 86.28515625 C145.98108405 86.00242257 148.028015 85.99382046 150.25 86.0625 C154.84413794 86.13354337 159.12611254 85.35874615 163.6171875 84.4375 C166.56126241 84.05674204 169.09738336 84.04702693 172.046875 84.1484375 C178.83105889 84.21054056 184.8967579 82.49500803 191.375 80.625 C192.52355469 80.30789062 193.67210937 79.99078125 194.85546875 79.6640625 C200.83498241 78.01898582 200.83498241 78.01898582 206.65478516 75.89990234 C209.53589853 74.79436582 211.94105352 74.85772342 215 75 C198.16905881 86.22062746 171.19723229 88.53413911 151.42333984 89.83984375 C149.7326324 89.95158101 148.04284173 90.07771722 146.35400391 90.21484375 C117.94288489 92.47150117 89.5120044 88.93718969 61.65844727 83.41137695 C59.05781148 83.00894594 56.62663285 82.92461281 54 83 C53.81824219 84.26457031 53.81824219 84.26457031 53.6328125 85.5546875 C53.46523438 86.65039062 53.29765625 87.74609375 53.125 88.875 C52.96257812 89.96554688 52.80015625 91.05609375 52.6328125 92.1796875 C52 95 52 95 50 97 C49.97291433 95.39592672 49.95356517 93.7917215 49.9375 92.1875 C49.92589844 91.29417969 49.91429687 90.40085937 49.90234375 89.48046875 C50 87 50 87 51 84 C51.03827608 82.52383663 51.01417269 81.04554276 50.94921875 79.5703125 C50.89314453 78.26392822 50.89314453 78.26392822 50.8359375 76.93115234 C50.59016593 72.28493782 50.30907784 67.64240254 50 63 C49.93425781 61.80890625 49.86851562 60.6178125 49.80078125 59.390625 C49.09437642 52.30822851 46.64706739 46.33985405 43.6875 39.9375 C43.30851562 39.11491699 42.92953125 38.29233398 42.5390625 37.44482422 C40.2853297 32.83899655 38.28386985 30.00167351 34 27 C33.1875 24.75 33.1875 24.75 33 23 C31.68 22.67 30.36 22.34 29 22 C29 21.01 29 20.02 29 19 C28.21625 18.938125 27.4325 18.87625 26.625 18.8125 C25.75875 18.544375 24.8925 18.27625 24 18 C22.6875 15.4375 22.6875 15.4375 22 13 C20.68 13 19.36 13 18 13 C17.67 12.34 17.34 11.68 17 11 C15.29173976 9.98161409 13.57929257 8.96878511 11.8359375 8.01171875 C10.3231253 7.17806266 8.84366741 6.28417506 7.375 5.375 C4.97874334 3.98769351 2.59246689 2.96291627 0 2 C0 1.34 0 0.68 0 0 Z " fill="#5ABDDB" transform="translate(440,52)"/>
<path d="M0 0 C-6.80228963 14.89411283 -27.8838484 25.21460004 -41 34 C-41.67836914 34.45890625 -42.35673828 34.9178125 -43.05566406 35.390625 C-49.33989254 39.6333578 -55.4509605 43.5428007 -62.6328125 46.09765625 C-65.26018794 47.09918055 -67.6482708 48.35879877 -70.125 49.6875 C-74.51456546 51.95173788 -78.08560307 52.72697795 -83 53 C-80.86285601 50.62317631 -79.06221946 49.40068998 -76.0625 48.3125 C-75.39347656 48.06113281 -74.72445312 47.80976563 -74.03515625 47.55078125 C-72 47 -72 47 -68 47 C-67.67 45.02 -67.34 43.04 -67 41 C-64.69 41 -62.38 41 -60 41 C-59.34 38.03 -58.68 35.06 -58 32 C-59.051875 32.309375 -60.10375 32.61875 -61.1875 32.9375 C-65.05605636 34.01562226 -68.8222623 34.83386661 -72.796875 35.39453125 C-77.80042502 36.10270566 -82.19290521 36.88601072 -86.75 39.125 C-91.12571751 41.26546831 -94.15323395 41.23452094 -99 41 C-100.49853516 41.23976563 -100.49853516 41.23976563 -102.02734375 41.484375 C-107.142528 42.27169347 -112.27521677 42.10616277 -117.4375 42.0625 C-118.45521484 42.05798828 -119.47292969 42.05347656 -120.52148438 42.04882812 C-123.01438509 42.03712437 -125.50716074 42.02072848 -128 42 C-128 41.67 -128 41.34 -128 41 C-126.99066406 40.98582031 -125.98132813 40.97164062 -124.94140625 40.95703125 C-115.24776471 40.68437263 -105.95161843 39.45331418 -96.4375 37.5625 C-95.32511963 37.34505127 -94.21273926 37.12760254 -93.06665039 36.90356445 C-88.9978578 36.08822717 -88.9978578 36.08822717 -85 35 C-84.505 34.01 -84.505 34.01 -84 33 C-82.15600586 32.36499023 -82.15600586 32.36499023 -79.71484375 31.80859375 C-78.80355713 31.59090332 -77.89227051 31.37321289 -76.95336914 31.14892578 C-75.95813232 30.91415527 -74.96289551 30.67938477 -73.9375 30.4375 C-53.50080283 25.34799336 -34.46346528 17.55629688 -16.12890625 7.27734375 C-15.30632324 6.81642334 -14.48374023 6.35550293 -13.63623047 5.88061523 C-12.03556481 4.97814621 -10.43930386 4.0678078 -8.84814453 3.14868164 C-8.12868652 2.7386792 -7.40922852 2.32867676 -6.66796875 1.90625 C-6.03141357 1.53822266 -5.3948584 1.17019531 -4.73901367 0.79101562 C-3 0 -3 0 0 0 Z " fill="#0AAAF5" transform="translate(715,119)"/>
<path d="M0 0 C-3.08888522 2.05925681 -3.70935927 2.2390374 -7.1875 2.125 C-8.445625 2.08375 -9.70375 2.0425 -11 2 C-11 2.66 -11 3.32 -11 4 C-12.07121094 4.27714844 -13.14242187 4.55429687 -14.24609375 4.83984375 C-15.64327627 5.20554924 -17.04040915 5.57144446 -18.4375 5.9375 C-19.14455078 6.11990234 -19.85160156 6.30230469 -20.58007812 6.49023438 C-24.07574861 7.18149374 -24.07574861 7.18149374 -27 9 C-29.85877909 9.23701239 -32.69883297 9.42219182 -35.5625 9.5625 C-36.36880859 9.60568359 -37.17511719 9.64886719 -38.00585938 9.69335938 C-40.00368805 9.79975262 -42.0018207 9.90040888 -44 10 C-44.33 10.99 -44.66 11.98 -45 13 C-48.33333333 13.66666667 -51.66666667 14.33333333 -55 15 C-55 15.66 -55 16.32 -55 17 C-51.7 17.33 -48.4 17.66 -45 18 C-45.495 16.515 -45.495 16.515 -46 15 C-45.34 14.67 -44.68 14.34 -44 14 C-43.505 14.99 -43.505 14.99 -43 16 C-41.87207031 15.98839844 -40.74414062 15.97679688 -39.58203125 15.96484375 C-14.87896437 15.78664549 9.68191408 17.4206863 34.0625 21.5625 C34.7524707 21.67706543 35.44244141 21.79163086 36.15332031 21.90966797 C40.75064132 22.75064132 40.75064132 22.75064132 43 25 C38.11416387 24.47344357 33.23687123 23.91149135 28.36328125 23.28125 C27.37263672 23.15363281 26.38199219 23.02601562 25.36132812 22.89453125 C23.34798408 22.63399602 21.33495387 22.37102265 19.32226562 22.10546875 C-22.68395122 16.72910745 -65.0051727 19.63690134 -105.69506836 31.4309082 C-108.51002364 32.12592576 -111.11423929 32.2339806 -114 32 C-111.01607697 28.64392028 -108.39649148 27.07568857 -104.21484375 25.484375 C-103.05831299 25.04182373 -101.90178223 24.59927246 -100.71020508 24.14331055 C-99.45308327 23.67766634 -98.195502 23.21326098 -96.9375 22.75 C-96.29573822 22.51044586 -95.65397644 22.27089172 -94.99276733 22.02407837 C-65.63668061 11.08502375 -31.72281758 -0.76440524 0 0 Z " fill="#13A0D9" transform="translate(171,57)"/>
<path d="M0 0 C-0.33 0.66 -0.66 1.32 -1 2 C-3.94140625 2.4140625 -3.94140625 2.4140625 -7.5625 2.625 C-8.76003906 2.69976562 -9.95757812 2.77453125 -11.19140625 2.8515625 C-12.11824219 2.90054688 -13.04507813 2.94953125 -14 3 C-14 3.99 -14 4.98 -14 6 C-14.99 6 -15.98 6 -17 6 C-17 6.66 -17 7.32 -17 8 C-18.98 8 -20.96 8 -23 8 C-23 8.99 -23 9.98 -23 11 C-21.46024002 10.99666908 -21.46024002 10.99666908 -19.88937378 10.99327087 C-10.20802139 10.97298521 -0.52667332 10.9580017 9.15469551 10.94818783 C14.1317852 10.9429728 19.1088577 10.93590019 24.0859375 10.92456055 C28.89050337 10.91368266 33.69505274 10.90771276 38.49962997 10.90512276 C40.33120865 10.90327735 42.16278643 10.89967375 43.99435806 10.89426994 C46.56282747 10.88699449 49.13122895 10.88601181 51.69970703 10.88647461 C52.45424667 10.88287933 53.20878632 10.87928406 53.9861908 10.87557983 C58.10558917 10.88359371 61.95389206 11.25325757 66 12 C68.08958568 12.0921876 70.17947009 12.18126133 72.27026367 12.23999023 C83.3081292 12.56274755 94.22571559 13.67556402 105.1875 14.9375 C105.95549927 15.02295074 106.72349854 15.10840149 107.51477051 15.19644165 C109.71293249 15.4428725 111.90925235 15.70169646 114.10546875 15.96484375 C115.38574951 16.1155835 116.66603027 16.26632324 117.98510742 16.42163086 C121 17 121 17 123 19 C112.77692863 18.2673501 102.59358125 17.2766799 92.40234375 16.19335938 C70.44864851 13.93238649 48.57377866 12.59476195 26.5 12.625 C25.33152527 12.62388214 24.16305054 12.62276428 22.95916748 12.62161255 C0.84564149 12.63191638 -20.95357476 14.16484173 -42.9039917 16.75534058 C-46.60079106 17.18685452 -50.30049785 17.59241516 -54 18 C-54 17.01 -54 16.02 -54 15 C-40.87035904 9.07724779 -27.16790003 4.78371284 -13.125 1.625 C-12.38233887 1.45734131 -11.63967773 1.28968262 -10.87451172 1.11694336 C-7.19668628 0.33004991 -3.76335556 -0.19185734 0 0 Z " fill="#55B2CD" transform="translate(76,100)"/>
<path d="M0 0 C-8.54469749 18.70924284 -38.20960081 32.39986217 -55 43 C-55 42.01 -55 41.02 -55 40 C-53.62646484 38.82080078 -53.62646484 38.82080078 -51.7109375 37.6953125 C-51.01613281 37.27636719 -50.32132813 36.85742188 -49.60546875 36.42578125 C-48.86941406 35.99652344 -48.13335938 35.56726563 -47.375 35.125 C-38.46857672 30.34408699 -38.46857672 30.34408699 -32 23 C-34.29349068 23.44911697 -36.58476218 23.90957944 -38.875 24.375 C-40.78925781 24.75785156 -40.78925781 24.75785156 -42.7421875 25.1484375 C-46.05924456 25.72237896 -46.05924456 25.72237896 -48 28 C-50.1015625 28.59765625 -50.1015625 28.59765625 -52.625 29.0625 C-53.52863281 29.23136719 -54.43226563 29.40023437 -55.36328125 29.57421875 C-57.50182604 29.91955413 -59.65665561 30.16294973 -61.8125 30.375 C-66.74870576 30.91000799 -71.3554491 32.59820047 -76.046875 34.16015625 C-79 35 -79 35 -83 35 C-83 34.34 -83 33.68 -83 33 C-82.35264893 32.82984375 -81.70529785 32.6596875 -81.03833008 32.484375 C-55.20546675 25.63266414 -31.96189957 16.50182976 -8.84887695 3.14892578 C-7.76932739 2.53380127 -7.76932739 2.53380127 -6.66796875 1.90625 C-6.03141357 1.53822266 -5.3948584 1.17019531 -4.73901367 0.79101562 C-3 0 -3 0 0 0 Z " fill="#14A5E9" transform="translate(715,119)"/>
<path d="M0 0 C11.2611743 2.53527234 22.51600552 5.09658694 33.75 7.75 C34.64807373 7.96035889 35.54614746 8.17071777 36.47143555 8.38745117 C37.30070557 8.58443604 38.12997559 8.7814209 38.984375 8.984375 C39.71366211 9.15678711 40.44294922 9.32919922 41.19433594 9.50683594 C43 10 43 10 45 11 C46.35479543 10.99427148 47.70958486 10.94658281 49.0625 10.875 C55.1427799 10.79667111 60.19001406 12.75837831 65.6875 15.1875 C68.54380004 16.19106488 70.99565137 16.13973715 74 16 C74 16.66 74 17.32 74 18 C74.66 18.33 75.32 18.66 76 19 C76 19.66 76 20.32 76 21 C77.0725 21.144375 78.145 21.28875 79.25 21.4375 C81.91662949 21.83749442 84.41399729 22.27591924 87 23 C86.195625 22.401875 85.39125 21.80375 84.5625 21.1875 C82 19 82 19 81 16 C86.47932789 17.54545146 91.11429181 20.15543212 96 23 C95.7834375 21.48019531 95.7834375 21.48019531 95.5625 19.9296875 C95.37478709 18.57815455 95.18729904 17.22659036 95 15.875 C94.90460938 15.20984375 94.80921875 14.5446875 94.7109375 13.859375 C94.16388547 9.87371019 93.89977818 6.02140062 94 2 C94.66 2 95.32 2 96 2 C96.97599146 4.92797437 97.15043238 6.94476912 97.2109375 10 C97.23929687 10.969375 97.26765625 11.93875 97.296875 12.9375 C97.34895363 14.97898243 97.39322641 17.02067893 97.4296875 19.0625 C97.460625 20.031875 97.4915625 21.00125 97.5234375 22 C97.5531665 23.3303125 97.5531665 23.3303125 97.58349609 24.6875 C98.08101573 27.44981298 98.91031085 28.20502312 101 30 C102.10290126 31.80931649 103.16071772 33.64642629 104.1875 35.5 C107.2275508 40.8297912 110.59826527 45.73680601 114.30078125 50.625 C115.78609217 52.70102078 116.94377934 54.68382068 118 57 C111.05537753 51.7561014 106.58089152 45.32829217 102.7890625 37.5 C98.82425879 30.02495605 92.48128544 28.26158616 84.82324219 25.88671875 C81.53582379 24.85421238 78.27331092 23.7560971 75.0078125 22.65625 C59.25728004 17.38704034 43.41918609 12.78452214 27.28710938 8.81005859 C23.85022079 7.96308917 20.41704819 7.10216749 16.984375 6.23828125 C11.32538388 4.81550495 5.66385016 3.40330088 0 2 C0 1.34 0 0.68 0 0 Z " fill="#54BBD8" transform="translate(242,126)"/>
<path d="M0 0 C1 3 1 3 0.13671875 5.390625 C-8.28956896 22.01607676 -19.41463371 36.3075876 -32 50 C-32 46.79604584 -31.25664978 44.90600261 -30 42 C-36.65794635 45.13505241 -42.48839973 48.12928348 -48 53 C-50.90819776 54.84000622 -53.92169219 56.4608461 -57 58 C-55.67570883 54.0271265 -53.14385278 52.79479489 -49.8125 50.5625 C-34.44063558 39.92901627 -20.70861757 27.24790249 -9.62109375 12.1640625 C-6.52117176 8.02585339 -3.2477235 4.02256109 0 0 Z " fill="#60C5E1" transform="translate(760,28)"/>
<path d="M0 0 C-2.81918272 1.87945515 -3.94492727 2.34357544 -7.1328125 2.8515625 C-7.93976563 2.98046875 -8.74671875 3.109375 -9.578125 3.2421875 C-10.41859375 3.36851563 -11.2590625 3.49484375 -12.125 3.625 C-12.94226563 3.7590625 -13.75953125 3.893125 -14.6015625 4.03125 C-20.1284806 4.88827211 -25.40835481 5.12375875 -31 5 C-31 5.66 -31 6.32 -31 7 C-31.80179687 7.08636719 -32.60359375 7.17273438 -33.4296875 7.26171875 C-51.11443486 9.44724875 -68.16299299 15.34462495 -85 21 C-84.01 21 -83.02 21 -82 21 C-80.19789062 21.0309375 -80.19789062 21.0309375 -78.359375 21.0625 C-73.93336381 21.0625 -69.63455048 20.56148848 -65.25 20 C-58.1355739 19.14143854 -51.17389695 18.74680364 -44 19 C-44 19.33 -44 19.66 -44 20 C-44.61069336 20.05945801 -45.22138672 20.11891602 -45.85058594 20.18017578 C-66.13812854 22.22247011 -86.09248231 25.74907907 -105.69506836 31.4309082 C-108.51002364 32.12592576 -111.11423929 32.2339806 -114 32 C-111.01607697 28.64392028 -108.39649148 27.07568857 -104.21484375 25.484375 C-103.05831299 25.04182373 -101.90178223 24.59927246 -100.71020508 24.14331055 C-99.45308327 23.67766634 -98.195502 23.21326098 -96.9375 22.75 C-96.29573822 22.51044586 -95.65397644 22.27089172 -94.99276733 22.02407837 C-65.63668061 11.08502375 -31.72281758 -0.76440524 0 0 Z " fill="#2A92BC" transform="translate(171,57)"/>
<path d="M0 0 C1.09054687 0.25394531 2.18109375 0.50789062 3.3046875 0.76953125 C45.87209479 10.55349637 91.40202451 13.09029405 134.296875 3.453125 C137 3 137 3 140 4 C135.26809761 6.17569945 130.3931368 7.08215702 125.3125 8.0625 C124.07016602 8.32256836 124.07016602 8.32256836 122.80273438 8.58789062 C106.60153671 11.73176616 89.59073763 11.27188372 73.15161133 11.61254883 C70.84744967 11.66240277 68.5433995 11.71771663 66.23950195 11.77856445 C51.38413394 12.17052388 36.73741614 12.1445131 22 10 C21.67 9.67 21.34 9.34 21 9 C19.33391013 8.95615553 17.66619446 8.9603287 16 9 C13.66666667 9 11.33333333 9 9 9 C9 8.01 9 7.02 9 6 C7.68 6 6.36 6 5 6 C5 5.34 5 4.68 5 4 C0.17557816 5.26946514 0.17557816 5.26946514 -3 9 C-3.33 8.01 -3.66 7.02 -4 6 C-2.0625 2.8125 -2.0625 2.8125 0 0 Z " fill="#2385C6" transform="translate(491,150)"/>
<path d="M0 0 C-21.06294378 7.44024059 -41.78464045 12.52906084 -64 15 C-65.17820312 15.13277344 -66.35640625 15.26554687 -67.5703125 15.40234375 C-93.87769538 17.85814803 -127.51232112 17.51774993 -152 7 C-148.89139894 6.0008068 -147.11388708 6.16963011 -144 7 C-143.34 6.67 -142.68 6.34 -142 6 C-140.00390625 6.26953125 -140.00390625 6.26953125 -137.5625 6.8125 C-133.67539063 7.646668 -129.78807238 8.42135568 -125.875 9.125 C-124.94429688 9.29257813 -124.01359375 9.46015625 -123.0546875 9.6328125 C-122.03761719 9.81457031 -122.03761719 9.81457031 -121 10 C-121 10.66 -121 11.32 -121 12 C-110.67000862 12.92201751 -100.41504699 13.18629915 -90.05029297 13.18530273 C-87.50341246 13.18749706 -84.95696119 13.20575685 -82.41015625 13.22460938 C-72.73941992 13.25659676 -63.54217148 12.72986161 -54 11 C-54 10.34 -54 9.68 -54 9 C-52.783125 8.87625 -51.56625 8.7525 -50.3125 8.625 C-41.6956169 7.65849336 -33.33732638 6.40499799 -25 4 C-23.62696106 3.85503772 -22.25152994 3.73184258 -20.875 3.625 C-15.60170159 3.15222152 -10.80793549 1.45189278 -5.8203125 -0.2578125 C-3 -1 -3 -1 0 0 Z " fill="#1D7AB8" transform="translate(615,183)"/>
<path d="M0 0 C8.24898992 0.46528545 15.99269135 1.67549837 24 3.6875 C25.08667969 3.9565918 26.17335938 4.22568359 27.29296875 4.50292969 C69.6303993 15.13692089 69.6303993 15.13692089 87 26 C86.01 27.485 86.01 27.485 85 29 C83.27473958 28.25130208 81.54947917 27.50260417 79.82421875 26.75390625 C78.24288979 26.10038058 76.62324594 25.54108198 75 25 C75 24.34 75 23.68 75 23 C74.32195312 22.97421875 73.64390625 22.9484375 72.9453125 22.921875 C64.51911816 22.40836731 58.08414742 20.2657294 50.71875 16.1796875 C42.69995266 11.75764718 36.31522774 10.02515059 27 11 C27 10.34 27 9.68 27 9 C24.525 8.505 24.525 8.505 22 8 C22 7.34 22 6.68 22 6 C19.69 6 17.38 6 15 6 C15 5.34 15 4.68 15 4 C14.12988281 4.05220703 14.12988281 4.05220703 13.2421875 4.10546875 C7.990866 4.28744524 4.60488781 3.83377711 0 1 C0 0.67 0 0.34 0 0 Z " fill="#1EA5DB" transform="translate(260,59)"/>
<path d="M0 0 C1.20029908 2.40059817 1.11459743 3.89360649 1.09765625 6.5703125 C1.09443359 7.46621094 1.09121094 8.36210938 1.08789062 9.28515625 C1.07532227 10.69087891 1.07532227 10.69087891 1.0625 12.125 C1.05798828 13.06988281 1.05347656 14.01476562 1.04882812 14.98828125 C1.03702357 17.32558387 1.02055759 19.66276061 1 22 C2.27617187 21.98839844 3.55234375 21.97679688 4.8671875 21.96484375 C6.53645687 21.95546583 8.20572783 21.94636563 9.875 21.9375 C10.71675781 21.92912109 11.55851562 21.92074219 12.42578125 21.91210938 C13.23144531 21.90888672 14.03710938 21.90566406 14.8671875 21.90234375 C15.98262939 21.89448853 15.98262939 21.89448853 17.12060547 21.88647461 C19 22 19 22 21 23 C21 23.66 21 24.32 21 25 C17.6871348 24.86179731 14.37482011 24.71316222 11.0625 24.5625 C10.11697266 24.52318359 9.17144531 24.48386719 8.19726562 24.44335938 C7.29814453 24.40146484 6.39902344 24.35957031 5.47265625 24.31640625 C4.64000244 24.27974854 3.80734863 24.24309082 2.94946289 24.20532227 C1 24 1 24 0 23 C-0.08651611 21.58429877 -0.10704904 20.164405 -0.09765625 18.74609375 C-0.09443359 17.89208984 -0.09121094 17.03808594 -0.08789062 16.15820312 C-0.07532227 14.81145508 -0.07532227 14.81145508 -0.0625 13.4375 C-0.05798828 12.53580078 -0.05347656 11.63410156 -0.04882812 10.70507812 C-0.03700244 8.47002411 -0.01906638 6.23500398 0 4 C-5.94 4 -11.88 4 -18 4 C-19.45349955 8.36049864 -19.39139356 12.81208497 -19.60546875 17.37109375 C-19.89851291 22.89851291 -19.89851291 22.89851291 -21 24 C-22.34267413 24.08631874 -23.68974322 24.10706473 -25.03515625 24.09765625 C-25.84404297 24.09443359 -26.65292969 24.09121094 -27.48632812 24.08789062 C-28.33646484 24.07951172 -29.18660156 24.07113281 -30.0625 24.0625 C-30.91650391 24.05798828 -31.77050781 24.05347656 -32.65039062 24.04882812 C-34.76695663 24.03700373 -36.88348685 24.01906769 -39 24 C-39.02690844 26.62506802 -39.04679404 29.24986173 -39.0625 31.875 C-39.07087891 32.62136719 -39.07925781 33.36773437 -39.08789062 34.13671875 C-39.20688084 38.19845578 -39.20688084 38.19845578 -38 42 C-32.39 42.33 -26.78 42.66 -21 43 C-19.25323081 48.24030757 -18.77459452 51.05350979 -18.875 56.375 C-18.89304687 57.62023437 -18.91109375 58.86546875 -18.9296875 60.1484375 C-18.95289063 61.08945313 -18.97609375 62.03046875 -19 63 C-19.66 62.67 -20.32 62.34 -21 62 C-21 57.38 -21 52.76 -21 48 C-25.39245678 46.24301729 -28.62809224 45.51282115 -33.25 44.9375 C-39.89679715 44.10320285 -39.89679715 44.10320285 -41 43 C-41.12692296 40.03059297 -41.18521201 37.09481743 -41.1875 34.125 C-41.19974609 33.29613281 -41.21199219 32.46726563 -41.22460938 31.61328125 C-41.22654297 30.81535156 -41.22847656 30.01742187 -41.23046875 29.1953125 C-41.23457764 28.46328613 -41.23868652 27.73125977 -41.24291992 26.97705078 C-41 25 -41 25 -39 22 C-36.06402461 21.61615491 -33.31972627 21.396157 -30.375 21.3125 C-29.17230469 21.26125977 -29.17230469 21.26125977 -27.9453125 21.20898438 C-25.96403682 21.12643122 -23.98203963 21.06154084 -22 21 C-22.15339844 20.41734375 -22.30679687 19.8346875 -22.46484375 19.234375 C-23.19537189 16.1842867 -23.58184766 13.10627451 -24 10 C-23.01 9.67 -22.02 9.34 -21 9 C-21 6.36 -21 3.72 -21 1 C-6.92036148 -1.5970065 -6.92036148 -1.5970065 0 0 Z " fill="#55B5D5" transform="translate(424,92)"/>
<path d="M0 0 C0 0.66 0 1.32 0 2 C-12.01178055 4.3938068 -12.01178055 4.3938068 -17 4 C-17.495 3.505 -17.495 3.505 -18 3 C-19.155 2.835 -20.31 2.67 -21.5 2.5 C-25 2 -25 2 -26 1 C-28.73163223 0.75292637 -31.43772016 0.57286211 -34.17578125 0.44140625 C-35.02086746 0.39915421 -35.86595367 0.35690216 -36.73664856 0.31336975 C-46.88544155 -0.14801015 -57.03078281 -0.10927261 -67.1875 -0.0625 C-69.12434778 -0.05746585 -71.06119685 -0.05290639 -72.99804688 -0.04882812 C-77.66539756 -0.0379951 -82.33268372 -0.02084053 -87 0 C-87 -0.66 -87 -1.32 -87 -2 C-57.85403598 -4.32598588 -28.95217963 -5.11561069 0 0 Z " fill="#1FA4D6" transform="translate(259,58)"/>
<path d="M0 0 C10.6160131 -0.54163332 19.15744146 -0.353331 29.08203125 3.80859375 C31.76990255 4.90605124 34.12384702 5.64361804 37 6 C37.66 5.67 38.32 5.34 39 5 C39.66 5.33 40.32 5.66 41 6 C41 6.99 41 7.98 41 9 C41.72960937 9.13051758 42.45921875 9.26103516 43.2109375 9.39550781 C45.82031145 9.9610549 48.13882357 10.71045644 50.625 11.671875 C51.49012207 12.00405029 52.35524414 12.33622559 53.24658203 12.6784668 C54.15520996 13.03207275 55.06383789 13.38567871 56 13.75 C56.93827637 14.11198486 57.87655273 14.47396973 58.84326172 14.84692383 C60.71344047 15.56856364 62.58308284 16.29159525 64.45214844 17.01611328 C66.59211441 17.84248956 68.73524725 18.65849378 70.8828125 19.46484375 C76.67515339 21.64918435 82.33943789 23.98757101 87.94921875 26.60546875 C90.35714969 27.70614909 92.77126459 28.76464317 95.20703125 29.80078125 C95.93688232 30.11289551 96.6667334 30.42500977 97.41870117 30.74658203 C98.87110636 31.36598776 100.32565893 31.98038606 101.7824707 32.58935547 C106.88874658 34.77749315 106.88874658 34.77749315 108 37 C108.886875 37.28875 109.77375 37.5775 110.6875 37.875 C114.27446606 39.09321489 116.92992109 40.80708649 120 43 C119.505 43.99 119.505 43.99 119 45 C118.29101562 44.56171875 117.58203125 44.1234375 116.8515625 43.671875 C81.39371097 22.55170193 40.38634478 8.7499422 0 1 C0 0.67 0 0.34 0 0 Z " fill="#1A85B7" transform="translate(216,82)"/>
<path d="M0 0 C0.66 0.33 1.32 0.66 2 1 C0.87548273 3.9719385 -0.22293791 6.33440687 -2 9 C-2.66 9 -3.32 9 -4 9 C-4.2475 9.5775 -4.495 10.155 -4.75 10.75 C-6.18299988 13.32939979 -7.78424676 15.06121592 -10 17 C-10.66 17 -11.32 17 -12 17 C-12.66 18.32 -13.32 19.64 -14 21 C-15.32 21 -16.64 21 -18 21 C-18.33 21.66 -18.66 22.32 -19 23 C-21.375 24.6875 -21.375 24.6875 -24 26 C-24.99 25.67 -25.98 25.34 -27 25 C-27 24.34 -27 23.68 -27 23 C-26.2884375 22.319375 -26.2884375 22.319375 -25.5625 21.625 C-23.85245927 20.13491371 -23.85245927 20.13491371 -23.60546875 18.1015625 C-21.36088985 10.31070155 -8.55075772 4.8042644 -2 1 C-1.34 0.67 -0.68 0.34 0 0 Z " fill="#52D5FA" transform="translate(729,69)"/>
<path d="M0 0 C10.5712003 1.67521753 19.0878089 8.19440905 27 15 C27.61359375 15.46921875 28.2271875 15.9384375 28.859375 16.421875 C41.84573678 26.54885437 50.50131071 43.92843052 53 60 C53.52931835 64.98965829 53.8013858 69.98670372 54 75 C53.34 75 52.68 75 52 75 C51.92595947 74.34217529 51.85191895 73.68435059 51.77563477 73.0065918 C50.36988753 61.1989311 48.75998711 49.9852553 43.5625 39.1875 C43.19133057 38.41301514 42.82016113 37.63853027 42.43774414 36.84057617 C40.202911 32.51055656 38.01847877 29.88914767 34 27 C33.1875 24.75 33.1875 24.75 33 23 C31.68 22.67 30.36 22.34 29 22 C29 21.01 29 20.02 29 19 C28.21625 18.938125 27.4325 18.87625 26.625 18.8125 C25.75875 18.544375 24.8925 18.27625 24 18 C22.6875 15.4375 22.6875 15.4375 22 13 C20.68 13 19.36 13 18 13 C17.67 12.34 17.34 11.68 17 11 C15.29173976 9.98161409 13.57929257 8.96878511 11.8359375 8.01171875 C10.3231253 7.17806266 8.84366741 6.28417506 7.375 5.375 C4.97874334 3.98769351 2.59246689 2.96291627 0 2 C0 1.34 0 0.68 0 0 Z " fill="#52AFCF" transform="translate(440,52)"/>
<path d="M0 0 C1.33333333 0.66666667 2.66666667 1.33333333 4 2 C4.66 2.28875 5.32 2.5775 6 2.875 C8 4 8 4 9.7734375 5.8828125 C22.56820117 18.04906147 42.6687746 20.62207668 59.41015625 20.30859375 C72.57825624 19.7704367 83.56156002 15.24046536 95 9 C98.25 7.234375 98.25 7.234375 101 6 C103.375 6.8125 103.375 6.8125 105 8 C104.071875 8.20625 103.14375 8.4125 102.1875 8.625 C98.79247631 9.58239668 95.99057076 11.0556294 92.9375 12.8125 C75.320641 22.68276758 54.69479084 26.02589901 35 21 C21.74308603 17.01713379 9.82750297 10.96829815 0 1 C0 0.67 0 0.34 0 0 Z " fill="#54ACC9" transform="translate(360,183)"/>
<path d="M0 0 C-1.3881735 3.12857014 -3.01101878 5.28189174 -5.4375 7.6875 C-6.33275391 8.59048828 -6.33275391 8.59048828 -7.24609375 9.51171875 C-9 11 -9 11 -12 12 C-11.34 10.68 -10.68 9.36 -10 8 C-9.34 8 -8.68 8 -8 8 C-8 7.34 -8 6.68 -8 6 C-9.65 6.33 -11.3 6.66 -13 7 C-13 7.66 -13 8.32 -13 9 C-17.39924694 11.36001268 -21.80398015 13.70913814 -26.21484375 16.04736328 C-27.56623241 16.76852282 -28.9100048 17.50397835 -30.25 18.24609375 C-35.63429827 21.14255778 -41.41611218 22.89486787 -47.21875 24.75390625 C-49.79458027 25.60275941 -52.30183472 26.48174412 -54.828125 27.453125 C-59.56881216 29.2533204 -64.39514609 30.72888291 -69.25 32.1875 C-70.13429688 32.46013672 -71.01859375 32.73277344 -71.9296875 33.01367188 C-72.78304687 33.27083984 -73.63640625 33.52800781 -74.515625 33.79296875 C-75.28165039 34.0252417 -76.04767578 34.25751465 -76.83691406 34.49682617 C-79 35 -79 35 -83 35 C-83 34.34 -83 33.68 -83 33 C-82.35264893 32.82984375 -81.70529785 32.6596875 -81.03833008 32.484375 C-55.20546675 25.63266414 -31.96189957 16.50182976 -8.84887695 3.14892578 C-7.76932739 2.53380127 -7.76932739 2.53380127 -6.66796875 1.90625 C-6.03141357 1.53822266 -5.3948584 1.17019531 -4.73901367 0.79101562 C-3 0 -3 0 0 0 Z " fill="#469CBB" transform="translate(715,119)"/>
<path d="M0 0 C0.66 0 1.32 0 2 0 C2.97599146 2.92797437 3.15043238 4.94476912 3.2109375 8 C3.23929687 8.969375 3.26765625 9.93875 3.296875 10.9375 C3.34895363 12.97898243 3.39322641 15.02067893 3.4296875 17.0625 C3.460625 18.031875 3.4915625 19.00125 3.5234375 20 C3.54325684 20.886875 3.56307617 21.77375 3.58349609 22.6875 C4.08101573 25.44981298 4.91031085 26.20502312 7 28 C8.10290126 29.80931649 9.16071772 31.64642629 10.1875 33.5 C13.2275508 38.8297912 16.59826527 43.73680601 20.30078125 48.625 C21.78609217 50.70102078 22.94377934 52.68382068 24 55 C16.98103711 49.6999668 12.72093602 43.24002218 8.68359375 35.46484375 C4.58977154 28.14484523 -1.17177306 26.31130143 -9 24 C-8.38125 23.855625 -7.7625 23.71125 -7.125 23.5625 C-4.96741678 23.06847775 -4.96741678 23.06847775 -3 22 C-3.63808594 21.67386719 -4.27617187 21.34773438 -4.93359375 21.01171875 C-5.75988281 20.57472656 -6.58617187 20.13773438 -7.4375 19.6875 C-8.26121094 19.25824219 -9.08492188 18.82898438 -9.93359375 18.38671875 C-12 17 -12 17 -13 14 C-7.52067211 15.54545146 -2.88570819 18.15543212 2 21 C1.855625 19.98679688 1.71125 18.97359375 1.5625 17.9296875 C1.37478709 16.57815455 1.18729904 15.22659036 1 13.875 C0.90460938 13.20984375 0.80921875 12.5446875 0.7109375 11.859375 C0.16388547 7.87371019 -0.10022182 4.02140062 0 0 Z " fill="#5EBBD7" transform="translate(336,128)"/>
<path d="M0 0 C26.03443074 5.32909173 50.85981841 17.20344634 75 28 C75 28.99 75 29.98 75 31 C74.35933594 30.6390625 73.71867187 30.278125 73.05859375 29.90625 C67.74220085 27.05393786 64.04748452 25.34266473 58 26 C57.505 24.515 57.505 24.515 57 23 C55.68 23 54.36 23 53 23 C50 22 50 22 48.1875 20 C45.49560047 17.53883472 43.57284046 17.32480368 40 17 C40 16.34 40 15.68 40 15 C38.205625 15.0928125 38.205625 15.0928125 36.375 15.1875 C32.22781506 15.19482718 29.59874083 14.12652867 26 12 C25.21625 11.608125 24.4325 11.21625 23.625 10.8125 C23.08875 10.544375 22.5525 10.27625 22 10 C22 9.34 22 8.68 22 8 C21.24976563 7.91363281 20.49953125 7.82726562 19.7265625 7.73828125 C12.30367799 6.71927066 6.47713765 4.75444704 0 1 C0 0.67 0 0.34 0 0 Z " fill="#4CBAD5" transform="translate(246,112)"/>
<path d="M0 0 C-0.78375 0.45375 -1.5675 0.9075 -2.375 1.375 C-5.03698031 2.88428742 -5.03698031 2.88428742 -7 5 C-9 5 -11 5 -13 5 C-18.22940079 5.67476139 -22.8769337 6.8124703 -27.625 9.125 C-32.0514842 11.23693172 -35.12319756 11.23597431 -40 11 C-41.49853516 11.23976562 -41.49853516 11.23976562 -43.02734375 11.484375 C-48.142528 12.27169347 -53.27521677 12.10616277 -58.4375 12.0625 C-59.45521484 12.05798828 -60.47292969 12.05347656 -61.52148438 12.04882812 C-64.01438509 12.03712437 -66.50716074 12.02072848 -69 12 C-69 11.67 -69 11.34 -69 11 C-67.99066406 10.98582031 -66.98132813 10.97164062 -65.94140625 10.95703125 C-56.26664501 10.68487165 -46.99420674 9.45696582 -37.5 7.5625 C-36.39599854 7.34505127 -35.29199707 7.12760254 -34.15454102 6.90356445 C-28.54677241 6.00747151 -28.54677241 6.00747151 -24 3 C-24 3.66 -24 4.32 -24 5 C-23.41508789 4.81300537 -22.83017578 4.62601074 -22.22753906 4.43334961 C-19.5715909 3.5907893 -16.91098215 2.76401718 -14.25 1.9375 C-13.32960938 1.64294922 -12.40921875 1.34839844 -11.4609375 1.04492188 C-10.57148437 0.77099609 -9.68203125 0.49707031 -8.765625 0.21484375 C-7.94868164 -0.04176025 -7.13173828 -0.29836426 -6.29003906 -0.56274414 C-3.82131929 -1.03411697 -2.3580946 -0.79786936 0 0 Z " fill="#129EE9" transform="translate(656,149)"/>
<path d="M0 0 C-0.68964844 0.30292969 -1.37929688 0.60585938 -2.08984375 0.91796875 C-9.349741 4.15454846 -16.37793263 7.58528842 -23 12 C-23.226875 12.928125 -23.45375 13.85625 -23.6875 14.8125 C-25.36581719 18.88841318 -27.36306221 19.74525086 -31.09765625 21.83203125 C-33.33881995 23.20802293 -34.55258669 24.82888003 -36 27 C-36.66 27 -37.32 27 -38 27 C-38.2475 27.61875 -38.495 28.2375 -38.75 28.875 C-40.23101402 31.39272383 -41.25177691 32.08392564 -44 33 C-44.99 32.67 -45.98 32.34 -47 32 C-46.2575 31.44570312 -45.515 30.89140625 -44.75 30.3203125 C-42.01778417 28.0150054 -40.13179952 25.73127826 -38 22.875 C-31.20034667 14.44567769 -11.7221699 -3.90738997 0 0 Z " fill="#57B6D0" transform="translate(393,52)"/>
<path d="M0 0 C-2.81918272 1.87945515 -3.94492727 2.34357544 -7.1328125 2.8515625 C-7.93976563 2.98046875 -8.74671875 3.109375 -9.578125 3.2421875 C-10.41859375 3.36851563 -11.2590625 3.49484375 -12.125 3.625 C-12.94226563 3.7590625 -13.75953125 3.893125 -14.6015625 4.03125 C-20.1284806 4.88827211 -25.40835481 5.12375875 -31 5 C-31 5.66 -31 6.32 -31 7 C-31.80179688 7.08636719 -32.60359375 7.17273438 -33.4296875 7.26171875 C-43.62477076 8.52165534 -53.18523771 11.03882972 -63 14 C-63.76860352 14.23187012 -64.53720703 14.46374023 -65.32910156 14.70263672 C-73.3321392 16.92367553 -73.3321392 16.92367553 -81 20 C-82.99960012 20.039992 -85.00047242 20.04346799 -87 20 C-84.36491097 18.24327398 -82.61488464 17.43412686 -79.66015625 16.51953125 C-78.77674561 16.2460083 -77.89333496 15.97248535 -76.9831543 15.69067383 C-22.19575158 -0.78264286 -22.19575158 -0.78264286 0 0 Z " fill="#2893BB" transform="translate(171,57)"/>
<path d="M0 0 C1.20029908 2.40059817 1.11459743 3.89360649 1.09765625 6.5703125 C1.09443359 7.46621094 1.09121094 8.36210938 1.08789062 9.28515625 C1.07951172 10.22230469 1.07113281 11.15945312 1.0625 12.125 C1.05798828 13.06988281 1.05347656 14.01476562 1.04882812 14.98828125 C1.03702357 17.32558387 1.02055759 19.66276061 1 22 C2.27617187 21.98839844 3.55234375 21.97679688 4.8671875 21.96484375 C6.53645687 21.95546583 8.20572783 21.94636563 9.875 21.9375 C10.71675781 21.92912109 11.55851562 21.92074219 12.42578125 21.91210938 C13.23144531 21.90888672 14.03710938 21.90566406 14.8671875 21.90234375 C15.98262939 21.89448853 15.98262939 21.89448853 17.12060547 21.88647461 C19 22 19 22 21 23 C21 23.66 21 24.32 21 25 C17.6871348 24.86179731 14.37482011 24.71316222 11.0625 24.5625 C10.11697266 24.52318359 9.17144531 24.48386719 8.19726562 24.44335938 C7.29814453 24.40146484 6.39902344 24.35957031 5.47265625 24.31640625 C4.64000244 24.27974854 3.80734863 24.24309082 2.94946289 24.20532227 C1 24 1 24 0 23 C-0.08651611 21.58429877 -0.10704904 20.164405 -0.09765625 18.74609375 C-0.09443359 17.89208984 -0.09121094 17.03808594 -0.08789062 16.15820312 C-0.07951172 15.26037109 -0.07113281 14.36253906 -0.0625 13.4375 C-0.05798828 12.53580078 -0.05347656 11.63410156 -0.04882812 10.70507812 C-0.03700225 8.46998686 -0.0205222 6.23502563 0 4 C-2.93774463 3.94609643 -5.87450232 3.9063745 -8.8125 3.875 C-9.64587891 3.85824219 -10.47925781 3.84148437 -11.33789062 3.82421875 C-12.14033203 3.81777344 -12.94277344 3.81132813 -13.76953125 3.8046875 C-14.50792236 3.79421387 -15.24631348 3.78374023 -16.00708008 3.77294922 C-18.31890676 3.88258521 -18.31890676 3.88258521 -21 6 C-21 4.35 -21 2.7 -21 1 C-6.92036148 -1.5970065 -6.92036148 -1.5970065 0 0 Z " fill="#58B9D5" transform="translate(424,92)"/>
<path d="M0 0 C1 3 1 3 0.13671875 5.390625 C-2.99660912 11.57282446 -6.42493796 17.4107342 -10.25 23.1875 C-10.68610596 23.84717773 -11.12221191 24.50685547 -11.5715332 25.18652344 C-14.74255091 29.87127545 -14.74255091 29.87127545 -17 31 C-16.67 30.236875 -16.34 29.47375 -16 28.6875 C-14.82563314 26.00930865 -14.82563314 26.00930865 -15 23 C-16.98 23.99 -16.98 23.99 -19 25 C-17.52739404 21.64488745 -15.6126089 19.30035297 -13.125 16.625 C-10.05487904 13.24510107 -7.47689628 9.84345974 -5 6 C-3.37912327 3.95628586 -1.69806862 1.98108005 0 0 Z " fill="#72B6CD" transform="translate(760,28)"/>
<path d="M0 0 C-0.33 0.66 -0.66 1.32 -1 2 C-3.94140625 2.4140625 -3.94140625 2.4140625 -7.5625 2.625 C-8.76003906 2.69976562 -9.95757812 2.77453125 -11.19140625 2.8515625 C-12.11824219 2.90054688 -13.04507813 2.94953125 -14 3 C-14 3.99 -14 4.98 -14 6 C-14.99 6 -15.98 6 -17 6 C-17 6.66 -17 7.32 -17 8 C-18.98 8 -20.96 8 -23 8 C-23 8.99 -23 9.98 -23 11 C-20.03 11 -17.06 11 -14 11 C-14 11.33 -14 11.66 -14 12 C-21.26 12 -28.52 12 -36 12 C-35.01 11.67 -34.02 11.34 -33 11 C-32.67 10.01 -32.34 9.02 -32 8 C-31.34 8 -30.68 8 -30 8 C-30 7.34 -30 6.68 -30 6 C-25.9397655 4.99064584 -21.87647836 3.9941633 -17.8125 3 C-16.66201172 2.71382813 -15.51152344 2.42765625 -14.32617188 2.1328125 C-13.21435547 1.86210938 -12.10253906 1.59140625 -10.95703125 1.3125 C-9.93585205 1.06113281 -8.91467285 0.80976562 -7.86254883 0.55078125 C-5.15693032 0.03019487 -2.74584412 -0.10586387 0 0 Z " fill="#54D0EF" transform="translate(76,100)"/>
<path d="M0 0 C5.75 0.875 5.75 0.875 8 2 C9.66658165 2.02678435 11.3332819 2.0462958 13 2.0625 C19.15878868 2.49759104 24.12335966 4.43551513 29.6875 6.9375 C30.48994141 7.29787354 31.29238281 7.65824707 32.11914062 8.02954102 C37.85603522 10.71207043 37.85603522 10.71207043 39 13 C38.34 13.66 37.68 14.32 37 15 C35.27473958 14.25130208 33.54947917 13.50260417 31.82421875 12.75390625 C30.24288979 12.10038058 28.62324594 11.54108198 27 11 C27 10.34 27 9.68 27 9 C25.98292969 8.96132812 25.98292969 8.96132812 24.9453125 8.921875 C15.62347272 8.35378504 8.17745549 5.30392394 0 1 C0 0.67 0 0.34 0 0 Z " fill="#13A2E9" transform="translate(308,73)"/>
<path d="M0 0 C-29.210095 10.00351342 -29.210095 10.00351342 -42.99609375 10.81640625 C-46.6964334 11.04256485 -50.32855814 11.49607661 -54 12 C-54 11.01 -54 10.02 -54 9 C-52.783125 8.87625 -51.56625 8.7525 -50.3125 8.625 C-41.6956169 7.65849336 -33.33732638 6.40499799 -25 4 C-23.62696106 3.85503772 -22.25152994 3.73184258 -20.875 3.625 C-15.60170159 3.15222152 -10.80793549 1.45189278 -5.8203125 -0.2578125 C-3 -1 -3 -1 0 0 Z " fill="#1982C4" transform="translate(615,183)"/>
<path d="M0 0 C0.33 0.66 0.66 1.32 1 2 C1.99 1.67 2.98 1.34 4 1 C6.94964113 0.914591 9.87503019 0.88417073 12.82421875 0.90234375 C14.11632011 0.90446617 14.11632011 0.90446617 15.43452454 0.90663147 C18.18555169 0.9122286 20.93649744 0.92478054 23.6875 0.9375 C25.5527332 0.94251537 27.41796767 0.94707821 29.28320312 0.95117188 C33.85550011 0.96219708 38.42773625 0.97945973 43 1 C39.46076628 3.35948915 38.07804445 3.21315928 33.8984375 3.125 C32.68542969 3.10953125 31.47242188 3.0940625 30.22265625 3.078125 C27.68097988 3.02651736 25.13931294 2.97444287 22.59765625 2.921875 C14.49063373 2.8191461 7.72128183 3.42623939 0 6 C-1.99961564 6.03920815 -4.00049364 6.04443347 -6 6 C-6 6.66 -6 7.32 -6 8 C-6.598125 7.835 -7.19625 7.67 -7.8125 7.5 C-10.11344336 6.8885876 -10.11344336 6.8885876 -13 7 C-13.66 6.67 -14.32 6.34 -15 6 C-13.68 5.67 -12.36 5.34 -11 5 C-11 4.34 -11 3.68 -11 3 C-5.555 2.505 -5.555 2.505 0 2 C0 1.34 0 0.68 0 0 Z " fill="#0EAFF0" transform="translate(171,56)"/>
<path d="M0 0 C0.66 0.33 1.32 0.66 2 1 C-7.99160454 6.4696898 -18.0484455 11.64576318 -28.5 16.1875 C-29.40129639 16.58573975 -30.30259277 16.98397949 -31.23120117 17.39428711 C-32.49347534 17.93194702 -32.49347534 17.93194702 -33.78125 18.48046875 C-34.52439453 18.79910889 -35.26753906 19.11774902 -36.03320312 19.44604492 C-38 20 -38 20 -41 19 C-40.34 19 -39.68 19 -39 19 C-39 18.34 -39 17.68 -39 17 C-34.63783719 11.9218591 -28.98971425 10.00051117 -22.5 9.25 C-16.02298366 8.38032389 -10.92074053 5.74876844 -5.25585938 2.65527344 C-3.52974556 1.72079113 -1.76726509 0.85410783 0 0 Z " fill="#178ECC" transform="translate(656,162)"/>
<path d="M0 0 C10.6160131 -0.54163332 19.15744146 -0.353331 29.08203125 3.80859375 C31.76990255 4.90605124 34.12384702 5.64361804 37 6 C37.66 5.67 38.32 5.34 39 5 C39.66 5.33 40.32 5.66 41 6 C41 6.99 41 7.98 41 9 C42.32 9.33 43.64 9.66 45 10 C39.77641407 11.83792838 35.41484432 9.89987423 30.375 8.3125 C20.34507837 5.28629907 10.27887642 2.99703885 0 1 C0 0.67 0 0.34 0 0 Z " fill="#179AD3" transform="translate(216,82)"/>
<path d="M0 0 C0.33 0 0.66 0 1 0 C1.02690104 2.79173055 1.04679053 5.58320348 1.0625 8.375 C1.07087891 9.1690625 1.07925781 9.963125 1.08789062 10.78125 C1.11328125 16.7734375 1.11328125 16.7734375 0 19 C-5.94 19.33 -11.88 19.66 -18 20 C-18.24939215 25.50420337 -18.24939215 25.50420337 -18.47802734 31.00927734 C-18.77777778 36.77777778 -18.77777778 36.77777778 -21 39 C-23.70922801 39.19852102 -26.29303179 39.27839477 -29 39.25 C-29.73734375 39.25773437 -30.4746875 39.26546875 -31.234375 39.2734375 C-36.7466804 39.2533196 -36.7466804 39.2533196 -39 37 C-33.06 36.67 -27.12 36.34 -21 36 C-20.71079094 30.1214612 -20.71079094 30.1214612 -20.43188477 24.24243164 C-20.39377686 23.51403076 -20.35566895 22.78562988 -20.31640625 22.03515625 C-20.27974854 21.2862915 -20.24309082 20.53742676 -20.20532227 19.76586914 C-20 18 -20 18 -19 17 C-17.65984779 16.84417697 -16.31241097 16.74955858 -14.96484375 16.68359375 C-14.15595703 16.64169922 -13.34707031 16.59980469 -12.51367188 16.55664062 C-11.66353516 16.51732422 -10.81339844 16.47800781 -9.9375 16.4375 C-9.08349609 16.39431641 -8.22949219 16.35113281 -7.34960938 16.30664062 C-5.23327963 16.20023298 -3.11666187 16.09958269 -1 16 C-0.67 10.72 -0.34 5.44 0 0 Z " fill="#54AEC6" transform="translate(444,118)"/>
<path d="M0 0 C0 0.66 0 1.32 0 2 C-0.98097656 1.855625 -1.96195312 1.71125 -2.97265625 1.5625 C-19.03920684 -0.78336535 -19.03920684 -0.78336535 -35 1 C-36.74886981 1.06624507 -38.50002748 1.08552595 -40.25 1.0625 C-41.14203125 1.05347656 -42.0340625 1.04445313 -42.953125 1.03515625 C-43.62859375 1.02355469 -44.3040625 1.01195312 -45 1 C-45 0.34 -45 -0.32 -45 -1 C-29.38261956 -4.21928824 -15.45720906 -5.15240302 0 0 Z " fill="#55BBD9" transform="translate(439,51)"/>
<path d="M0 0 C6.75 1.875 6.75 1.875 9 3 C8.62106695 7.35773009 7.74547426 10.8896028 6.0625 14.9375 C2.06351375 24.63069493 1.47733471 33.64937374 1 44 C-1.17413273 41.65689323 -1.9729193 40.42387183 -2.1796875 37.1875 C-0.44670116 19.05779677 -0.44670116 19.05779677 3.58984375 12.36328125 C5.34806421 9.41667909 5.2352419 7.3718005 5 4 C4.0409375 3.8453125 4.0409375 3.8453125 3.0625 3.6875 C2.381875 3.460625 1.70125 3.23375 1 3 C0.67 2.01 0.34 1.02 0 0 Z " fill="#0BA7EB" transform="translate(336,84)"/>
<path d="M0 0 C8.42083368 7.43014737 12.43477427 17.57441566 16 28 C16.2371875 28.68578125 16.474375 29.3715625 16.71875 30.078125 C18.70635886 36.80091968 18.65545164 44.0364963 19 51 C18.34 51 17.68 51 17 51 C16.92595947 50.34217529 16.85191895 49.68435059 16.77563477 49.0065918 C14.70225822 31.59113756 11.2901171 15.85605281 0 2 C0 1.34 0 0.68 0 0 Z " fill="#56A9C4" transform="translate(475,76)"/>
<path d="M0 0 C0.66 0.33 1.32 0.66 2 1 C3.87056791 1.2275015 5.74685958 1.40962811 7.625 1.5625 C8.62789063 1.64628906 9.63078125 1.73007813 10.6640625 1.81640625 C11.43492187 1.87699219 12.20578125 1.93757813 13 2 C13 2.33 13 2.66 13 3 C12.44004837 3.00808685 11.88009674 3.01617371 11.30317688 3.02450562 C5.41308967 3.11134982 -0.47669136 3.21087556 -6.36645508 3.31738281 C-8.55715749 3.35538956 -10.74791631 3.39028872 -12.9387207 3.421875 C-31.7119709 3.32808739 -31.7119709 3.32808739 -50 7 C-50.66 6.67 -51.32 6.34 -52 6 C-52.33 6.66 -52.66 7.32 -53 8 C-53 7.34 -53 6.68 -53 6 C-54.65 6.33 -56.3 6.66 -58 7 C-58.33 6.34 -58.66 5.68 -59 5 C-57.4183067 4.67930234 -55.83448591 4.3691025 -54.25 4.0625 C-53.36828125 3.88847656 -52.4865625 3.71445313 -51.578125 3.53515625 C-40.15369755 1.82648097 -28.76845459 1.87700871 -17.25 1.9375 C-15.57031384 1.94252803 -13.89062622 1.94708862 -12.2109375 1.95117188 C-8.14058804 1.96206736 -4.07031071 1.97925916 0 2 C0 1.34 0 0.68 0 0 Z " fill="#50C7E7" transform="translate(146,94)"/>
<path d="M0 0 C0.66 0.33 1.32 0.66 2 1 C-11.30469615 12.32096253 -26.25261342 21.6896597 -41 31 C-41 30.01 -41 29.02 -41 28 C-38.52916143 26.25781892 -36.10113146 24.71043484 -33.5 23.1875 C-32.01536479 22.29034066 -30.53227031 21.3906264 -29.05078125 20.48828125 C-28.34131348 20.05725098 -27.6318457 19.6262207 -26.90087891 19.18212891 C-23.41813986 17.01626422 -20.22812383 14.52014496 -17 12 C-15.04826283 10.53285052 -13.08954199 9.07495873 -11.125 7.625 C-10.19945312 6.93664062 -9.27390625 6.24828125 -8.3203125 5.5390625 C-6 4 -6 4 -4 4 C-4 3.34 -4 2.68 -4 2 C-2.125 0.9375 -2.125 0.9375 0 0 Z " fill="#2182B4" transform="translate(701,131)"/>
<path d="M0 0 C-9.43899869 6.29266579 -22.04451543 8.02855297 -32.9375 10.3125 C-34.82154541 10.71227051 -34.82154541 10.71227051 -36.74365234 11.12011719 C-42.93883799 12.37850135 -48.67664424 13.34030575 -55 13 C-55 12.67 -55 12.34 -55 12 C-53.12634766 11.67128906 -53.12634766 11.67128906 -51.21484375 11.3359375 C-41.21109051 9.53207749 -31.33639 7.44760646 -21.5 4.875 C-20.52796631 4.62153809 -19.55593262 4.36807617 -18.55444336 4.10693359 C-13.40660511 2.74186187 -13.40660511 2.74186187 -8.40820312 0.92236328 C-5.49505648 -0.19339787 -3.09286365 -0.14385412 0 0 Z " fill="#4FB2CD" transform="translate(655,127)"/>
<path d="M0 0 C1.4540625 0.0309375 1.4540625 0.0309375 2.9375 0.0625 C3.2675 1.0525 3.5975 2.0425 3.9375 3.0625 C2.803125 3.165625 1.66875 3.26875 0.5 3.375 C-2.70997757 3.75929309 -5.47453163 4.49577589 -8.5 5.625 C-13.1176274 7.27358101 -17.21294356 7.32542776 -22.0625 7.0625 C-23.0525 7.0625 -24.0425 7.0625 -25.0625 7.0625 C-23.76899887 4.47549773 -22.88390149 4.41639268 -20.1875 3.5 C-15.56341911 2.02059148 -11.081455 1.55527237 -6.25 1.2734375 C-3.23217678 0.98243312 -3.35404311 0.06844986 0 0 Z " fill="#1BAEE6" transform="translate(110.0625,71.9375)"/>
<path d="M0 0 C-1.68221843 0.7212538 -3.36453414 1.44228163 -5.04736328 2.16210938 C-6.74104307 2.8888797 -8.43138046 3.62342979 -10.12109375 4.359375 C-18.16650365 7.73295088 -26.31516967 10.41930038 -34.6875 12.875 C-35.73929443 13.1853418 -36.79108887 13.49568359 -37.87475586 13.81542969 C-42.12233041 15.03423603 -45.54864608 16 -50 16 C-50 15.34 -50 14.68 -50 14 C-49.35264893 13.82984375 -48.70529785 13.6596875 -48.03833008 13.484375 C-35.26155776 10.09556174 -22.76904011 6.49060716 -10.55200195 1.40234375 C-9.744646 1.07363281 -8.93729004 0.74492187 -8.10546875 0.40625 C-7.40574951 0.11041016 -6.70603027 -0.18542969 -5.98510742 -0.49023438 C-3.6414912 -1.09206326 -2.26695369 -0.76443418 0 0 Z " fill="#258BB9" transform="translate(682,138)"/>
<path d="M0 0 C0.33 0 0.66 0 1 0 C1.66 3.3 2.32 6.6 3 10 C8.61 10.33 14.22 10.66 20 11 C21.74676919 16.24030757 22.22540548 19.05350979 22.125 24.375 C22.10695313 25.62023437 22.08890625 26.86546875 22.0703125 28.1484375 C22.04710937 29.08945313 22.02390625 30.03046875 22 31 C21.34 30.67 20.68 30.34 20 30 C20 25.38 20 20.76 20 16 C15.60754322 14.24301729 12.37190776 13.51282115 7.75 12.9375 C1.10320285 12.10320285 1.10320285 12.10320285 0 11 C-0.07226502 9.14712498 -0.0838122 7.29166122 -0.0625 5.4375 C-0.05347656 4.42558594 -0.04445313 3.41367188 -0.03515625 2.37109375 C-0.02355469 1.58863281 -0.01195312 0.80617188 0 0 Z " fill="#54A3BD" transform="translate(383,124)"/>
<path d="M0 0 C-0.66 0 -1.32 0 -2 0 C-2.33 0.99 -2.66 1.98 -3 3 C-3.99 3.33 -4.98 3.66 -6 4 C-6 3.34 -6 2.68 -6 2 C-6.77214844 2.44214844 -7.54429687 2.88429688 -8.33984375 3.33984375 C-12.84068835 5.58960552 -17.67667399 6.48768609 -22.5625 7.5625 C-27.88876764 8.75143189 -32.94546755 9.91385661 -38 12 C-40.45703125 12.4140625 -40.45703125 12.4140625 -42.8125 12.625 C-43.60269531 12.69976562 -44.39289062 12.77453125 -45.20703125 12.8515625 C-45.79871094 12.90054688 -46.39039063 12.94953125 -47 13 C-47 12.34 -47 11.68 -47 11 C-46.23558594 10.8141333 -45.47117187 10.6282666 -44.68359375 10.43676758 C-25.07529096 5.69141332 -25.07529096 5.69141332 -5.80859375 -0.25 C-3 -1 -3 -1 0 0 Z " fill="#5FB4CC" transform="translate(653,111)"/>
<path d="M0 0 C0.33 0 0.66 0 1 0 C1 2.31 1 4.62 1 7 C1.556875 7.103125 2.11375 7.20625 2.6875 7.3125 C5.4769101 8.14178408 7.6139064 9.34299056 10 11 C10 11.66 10 12.32 10 13 C7.69 13.66 5.38 14.32 3 15 C2.87882812 15.84304687 2.75765625 16.68609375 2.6328125 17.5546875 C2.46523438 18.65039062 2.29765625 19.74609375 2.125 20.875 C1.96257812 21.96554688 1.80015625 23.05609375 1.6328125 24.1796875 C1 27 1 27 -1 29 C-1.02708567 27.39592672 -1.04643483 25.7917215 -1.0625 24.1875 C-1.07410156 23.29417969 -1.08570313 22.40085938 -1.09765625 21.48046875 C-1 19 -1 19 0 16 C0.07051114 13.26134713 0.09357765 10.54972412 0.0625 7.8125 C0.05573242 6.68811523 0.05573242 6.68811523 0.04882812 5.54101562 C0.03706354 3.69397617 0.01912865 1.84697787 0 0 Z " fill="#57C9EB" transform="translate(491,120)"/>
<path d="M0 0 C11.55 0 23.1 0 35 0 C34.67 0.66 34.34 1.32 34 2 C4.09903122 4.04951561 4.09903122 4.04951561 0 2 C0 1.34 0 0.68 0 0 Z " fill="#0D8DE8" transform="translate(542,161)"/>
<path d="M0 0 C2.01822917 0.29296875 4.03645833 0.5859375 6.0546875 0.87890625 C8.08140667 1.1684297 8.08140667 1.1684297 10 0 C11.99609375 0.26953125 11.99609375 0.26953125 14.4375 0.8125 C18.32460937 1.646668 22.21192762 2.42135568 26.125 3.125 C27.05570312 3.29257813 27.98640625 3.46015625 28.9453125 3.6328125 C29.96238281 3.81457031 29.96238281 3.81457031 31 4 C31 4.66 31 5.32 31 6 C23.88450183 6.56422452 17.35978791 5.65715146 10.4375 4.125 C9.63973145 3.95129883 8.84196289 3.77759766 8.02001953 3.59863281 C2.26046766 2.26046766 2.26046766 2.26046766 0 0 Z " fill="#127CC9" transform="translate(463,189)"/>
<path d="M0 0 C1.32 0.33 2.64 0.66 4 1 C3 4 3 4 -0.23828125 5.75390625 C-1.59160418 6.36735942 -2.94995504 6.96981206 -4.3125 7.5625 C-5.66289361 8.16767164 -7.01315771 8.77313234 -8.36328125 9.37890625 C-9.56339844 9.91386719 -10.76351562 10.44882813 -12 11 C-13.09634766 11.58201172 -13.09634766 11.58201172 -14.21484375 12.17578125 C-17.34563587 13.62128921 -20.59209787 13.65920979 -24 14 C-21.86285601 11.62317631 -20.06221946 10.40068998 -17.0625 9.3125 C-16.39347656 9.06113281 -15.72445312 8.80976563 -15.03515625 8.55078125 C-13 8 -13 8 -9 8 C-8.67 6.02 -8.34 4.04 -8 2 C-5.69 2 -3.38 2 -1 2 C-0.67 1.34 -0.34 0.68 0 0 Z " fill="#0FA0EC" transform="translate(656,158)"/>
<path d="M0 0 C5.73138244 -0.15490223 10.89349206 0.34755115 16.5 1.5 C17.22703125 1.64308594 17.9540625 1.78617187 18.703125 1.93359375 C20.47009071 2.28233698 22.23525309 2.64019723 24 3 C24 2.34 24 1.68 24 1 C26.40502575 1.42946888 27.80609319 1.83482012 29.6875 3.4375 C33.14853111 5.77603454 36.93504034 6.26170605 41 7 C36.62461817 8.32570654 32.90596018 7.44748374 28.515625 6.56640625 C27.29223419 6.33122536 27.29223419 6.33122536 26.04412842 6.09129333 C23.44446917 5.58964759 20.84729294 5.07624233 18.25 4.5625 C16.485828 4.21992505 14.72150649 3.87811902 12.95703125 3.53710938 C8.63623667 2.70031242 4.31763108 1.85296301 0 1 C0 0.67 0 0.34 0 0 Z " fill="#54B0C9" transform="translate(200,119)"/>
<path d="M0 0 C13.49468715 -0.59244968 26.64601529 1.21207184 40 3 C40 3.66 40 4.32 40 5 C35.60379093 6.07462888 32.74935571 6.0784212 28.4375 4.6875 C19.28727018 1.87799282 9.49747625 1.70002571 0 1 C0 0.67 0 0.34 0 0 Z " fill="#2D9ECA" transform="translate(219,55)"/>
<path d="M0 0 C1.33333333 0.66666667 2.66666667 1.33333333 4 2 C4.66 2.28875 5.32 2.5775 6 2.875 C8 4 8 4 9.7578125 5.87890625 C12.29913952 8.2829839 14.72326857 9.55881134 17.875 11.0625 C18.88304687 11.54847656 19.89109375 12.03445312 20.9296875 12.53515625 C23.0566005 13.54990482 25.1870681 14.55722373 27.3203125 15.55859375 C30 17 30 17 31 19 C18.9055004 16.19043704 8.61634319 9.92096139 0 1 C0 0.67 0 0.34 0 0 Z " fill="#4DA8C3" transform="translate(360,183)"/>
<path d="M0 0 C0.66 0 1.32 0 2 0 C2.17187498 1.35351547 2.33717258 2.70786633 2.5 4.0625 C2.5928125 4.81660156 2.685625 5.57070312 2.78125 6.34765625 C3.04577654 9.55504049 3 12.78172594 3 16 C7.95 16 12.9 16 18 16 C18 16.99 18 17.98 18 19 C12.06 18.67 6.12 18.34 0 18 C0 12.06 0 6.12 0 0 Z " fill="#55C6E8" transform="translate(425,96)"/>
<path d="M0 0 C8.39001357 1.29523251 16.08853669 4.0132516 24 7 C24 7.33 24 7.66 24 8 C14.7979203 8.98593711 7.347696 5.44150412 -1 2 C-0.67 1.34 -0.34 0.68 0 0 Z " fill="#299ECF" transform="translate(301,68)"/>
<path d="M0 0 C12.87 0.495 12.87 0.495 26 1 C26 1.66 26 2.32 26 3 C18.29014094 5.56995302 8.74925389 3.86812371 1 2 C0.67 1.34 0.34 0.68 0 0 Z " fill="#69C3DA" transform="translate(495,127)"/>
<path d="M0 0 C0 0.66 0 1.32 0 2 C-5.93576017 7.53104925 -5.93576017 7.53104925 -10 8 C-10 8.66 -10 9.32 -10 10 C-12.375 11.6875 -12.375 11.6875 -15 13 C-15.66 12.67 -16.32 12.34 -17 12 C-17 11.34 -17 10.68 -17 10 C-16.34 10 -15.68 10 -15 10 C-15 9.01 -15 8.02 -15 7 C-13.71086513 6.32845067 -12.41859796 5.66291141 -11.125 5 C-10.40570312 4.62875 -9.68640625 4.2575 -8.9453125 3.875 C-7 3 -7 3 -5 3 C-5 2.34 -5 1.68 -5 1 C-3 0 -3 0 0 0 Z " fill="#2BAEEB" transform="translate(707,125)"/>
<path d="M0 0 C-0.33 0.66 -0.66 1.32 -1 2 C1.64 1.67 4.28 1.34 7 1 C0.6914269 4.40603712 -6.81103584 6.58288899 -14 6 C-10.96095324 2.3278185 -4.86447691 -2.43223845 0 0 Z " fill="#5FB8CC" transform="translate(71,83)"/>
<path d="M0 0 C0.33 0.66 0.66 1.32 1 2 C3.64 2 6.28 2 9 2 C6.8725599 3.18191117 5.07979356 3.98455175 2.6796875 4.44921875 C-0.08922393 5.01833903 -2.55592089 5.84784809 -5.1875 6.875 C-6.47720703 7.36613281 -6.47720703 7.36613281 -7.79296875 7.8671875 C-10.30526735 8.93038249 -10.30526735 8.93038249 -12 12 C-12 11.34 -12 10.68 -12 10 C-12.99 9.67 -13.98 9.34 -15 9 C-13.10370106 5.20740212 -7.72593086 4.58054926 -3.90625 3.21875 C-0.8912137 2.32566599 -0.8912137 2.32566599 0 0 Z " fill="#52C9EE" transform="translate(393,50)"/>
<path d="M0 0 C0.33 0.99 0.66 1.98 1 3 C4.3 3.33 7.6 3.66 11 4 C11 4.33 11 4.66 11 5 C7.83335334 5.02940458 4.66674253 5.04693315 1.5 5.0625 C0.613125 5.07087891 -0.27375 5.07925781 -1.1875 5.08789062 C-6.55823086 5.10763596 -11.68633663 4.78835893 -17 4 C-17 3.67 -17 3.34 -17 3 C-15.85660156 2.86722656 -14.71320313 2.73445312 -13.53515625 2.59765625 C-12.0442438 2.4194969 -10.55335982 2.24109918 -9.0625 2.0625 C-7.93038086 1.93198242 -7.93038086 1.93198242 -6.77539062 1.79882812 C-3.07812542 1.65675901 -3.07812542 1.65675901 0 0 Z " fill="#0881E5" transform="translate(517,192)"/>
<path d="M0 0 C6.7394507 0.63382929 12.99550621 2.22297453 19.5 4.0625 C20.51320312 4.34416016 21.52640625 4.62582031 22.5703125 4.91601562 C25.04832734 5.60565183 27.52478 6.30041189 30 7 C30 7.33 30 7.66 30 8 C28.09759609 7.76219951 26.19521686 7.52419982 24.29296875 7.28515625 C22.81688361 7.10158859 21.340345 6.92161321 19.86328125 6.74609375 C9.77203647 5.53514438 9.77203647 5.53514438 5 3 C3.33859237 2.32033324 1.67299959 1.65061095 0 1 C0 0.67 0 0.34 0 0 Z " fill="#53B8D0" transform="translate(215,104)"/>
<path d="M0 0 C0.66 1.32 1.32 2.64 2 4 C1.07038578 5.15224028 0.1309875 6.29659176 -0.8125 7.4375 C-1.59560547 8.39462891 -1.59560547 8.39462891 -2.39453125 9.37109375 C-4 11 -4 11 -7 12 C-7.33 10.35 -7.66 8.7 -8 7 C-2.25 2 -2.25 2 0 2 C0 1.34 0 0.68 0 0 Z " fill="#59CFF1" transform="translate(739,57)"/>
<path d="M0 0 C9.7805024 1.91238874 18.15242581 5.58829976 27 10 C26.67 10.66 26.34 11.32 26 12 C25.35933594 11.6390625 24.71867187 11.278125 24.05859375 10.90625 C18.74220085 8.05393786 15.04748452 6.34266473 9 7 C8.67 6.01 8.34 5.02 8 4 C6.68 4 5.36 4 4 4 C3.01 3.67 2.02 3.34 1 3 C0.67 2.01 0.34 1.02 0 0 Z " fill="#54BCDA" transform="translate(295,131)"/>
<path d="M0 0 C-0.33 0.66 -0.66 1.32 -1 2 C-3.94140625 2.4140625 -3.94140625 2.4140625 -7.5625 2.625 C-8.76003906 2.69976562 -9.95757812 2.77453125 -11.19140625 2.8515625 C-12.11824219 2.90054688 -13.04507813 2.94953125 -14 3 C-14 3.99 -14 4.98 -14 6 C-18.95 6.33 -23.9 6.66 -29 7 C-26.17217843 5.11478562 -24.51470368 4.4822186 -21.2890625 3.7109375 C-19.91621094 3.38222656 -19.91621094 3.38222656 -18.515625 3.046875 C-17.08476563 2.71429688 -17.08476563 2.71429688 -15.625 2.375 C-14.67882813 2.14554687 -13.73265625 1.91609375 -12.7578125 1.6796875 C-8.39296242 0.64977905 -4.50619248 -0.13167772 0 0 Z " fill="#5CB4CE" transform="translate(76,100)"/>
<path d="M0 0 C5.445 0.495 5.445 0.495 11 1 C8.45945693 3.54054307 6.96074034 3.49603714 3.4375 4 C-0.45536243 4.59025351 -4.28825361 5.23911709 -8.125 6.125 C-12 7 -12 7 -14 7 C-14 6.01 -14 5.02 -14 4 C-13.07316406 3.87882812 -12.14632812 3.75765625 -11.19140625 3.6328125 C-9.99386719 3.46523437 -8.79632813 3.29765625 -7.5625 3.125 C-6.36753906 2.96257812 -5.17257813 2.80015625 -3.94140625 2.6328125 C-2.97074219 2.42398438 -2.00007813 2.21515625 -1 2 C-0.67 1.34 -0.34 0.68 0 0 Z " fill="#53C8EA" transform="translate(76,99)"/>
<path d="M0 0 C8.60308032 0.44953032 16.65932321 1.86101998 25 4 C25 4.33 25 4.66 25 5 C21.9570141 4.91262714 18.91681634 4.80569374 15.875 4.6875 C15.0190625 4.66494141 14.163125 4.64238281 13.28125 4.61914062 C8.13769325 4.40152861 4.50223908 3.75300848 0 1 C0 0.67 0 0.34 0 0 Z " fill="#2E9FD1" transform="translate(260,59)"/>
<path d="M0 0 C3.14574186 2.75626906 5.13520318 6.23144405 7.3125 9.75 C10.53766164 14.87778922 13.86524659 19.54718863 18 24 C17.67 24.66 17.34 25.32 17 26 C11.59126712 20.56622669 7.20494167 15.15501008 3.4375 8.5 C3.09138672 7.88882324 2.74527344 7.27764648 2.38867188 6.64794922 C0 2.29192029 0 2.29192029 0 0 Z " fill="#4AA3C1" transform="translate(342,157)"/>
<path d="M0 0 C0 0.33 0 0.66 0 1 C-3.3 1 -6.6 1 -10 1 C-10 1.66 -10 2.32 -10 3 C-14.455 3.495 -14.455 3.495 -19 4 C-19 3.01 -19 2.02 -19 1 C-13.34439238 -2.30454672 -6.18867042 -1.65031211 0 0 Z " fill="#5FC8E2" transform="translate(41,114)"/>
<path d="M0 0 C6.36430174 1.31235852 12.42121028 3.01219415 18.5625 5.125 C19.38041016 5.40214844 20.19832031 5.67929688 21.04101562 5.96484375 C23.02876568 6.63905137 25.01459349 7.31892204 27 8 C27 8.33 27 8.66 27 9 C16.95205695 7.90386076 8.93937666 5.88959642 0 1 C0 0.67 0 0.34 0 0 Z " fill="#4EB4C8" transform="translate(246,112)"/>
<path d="M0 0 C0.78375 0.05220703 1.5675 0.10441406 2.375 0.15820312 C4.2920912 0.28678851 6.20861503 0.42378617 8.125 0.5625 C8.125 0.8925 8.125 1.2225 8.125 1.5625 C2.24099345 2.41945967 -3.43409292 2.68789234 -9.375 2.625 C-10.19742188 2.62048828 -11.01984375 2.61597656 -11.8671875 2.61132812 C-13.86982396 2.59968489 -15.87242227 2.58175556 -17.875 2.5625 C-12.26741325 -1.17589116 -6.44466702 -0.47515765 0 0 Z " fill="#0D88E7" transform="translate(546.875,194.4375)"/>
<path d="M0 0 C0.33 0.99 0.66 1.98 1 3 C0.01 3.495 0.01 3.495 -1 4 C-2.01866229 5.65532623 -3.01810813 7.32260138 -4 9 C-4.66 9.66 -5.32 10.32 -6 11 C-5.34 12.32 -4.68 13.64 -4 15 C-6.64 14.34 -9.28 13.68 -12 13 C-8.17420552 8.44548277 -4.25602708 4.15469311 0 0 Z " fill="#0C94E3" transform="translate(476,176)"/>
<path d="M0 0 C0.33 0.66 0.66 1.32 1 2 C1.66 1.67 2.32 1.34 3 1 C3 1.66 3 2.32 3 3 C3.66 3 4.32 3 5 3 C5 3.66 5 4.32 5 5 C4.01 5 3.02 5 2 5 C1.67 5.66 1.34 6.32 1 7 C0.34 5.68 -0.32 4.36 -1 3 C-5.29 3.66 -9.58 4.32 -14 5 C-11.75043698 2.75043698 -9.93676737 1.99489035 -7 0.8125 C-6.113125 0.44769531 -5.22625 0.08289063 -4.3125 -0.29296875 C-2 -1 -2 -1 0 0 Z " fill="#56D4F7" transform="translate(667,105)"/>
<path d="M0 0 C0.66 0.66 1.32 1.32 2 2 C-5.52185321 8.58162156 -13.02579499 14.51289749 -22 19 C-20.63383049 14.90149146 -17.80571233 13.51288709 -14.375 11.1875 C-9.33467762 7.68958533 -4.55670136 4.1227298 0 0 Z " fill="#54AEC8" transform="translate(725,67)"/>
<path d="M0 0 C0.33 0 0.66 0 1 0 C1.33 6.27 1.66 12.54 2 19 C0.35 19.33 -1.3 19.66 -3 20 C-2.67 19.34 -2.34 18.68 -2 18 C-1.73492604 14.34418829 -1.55514201 10.69453367 -1.39453125 7.03320312 C-1.1006921 1.1006921 -1.1006921 1.1006921 0 0 Z " fill="#56C4E7" transform="translate(426,137)"/>
<path d="M0 0 C0.33 0.66 0.66 1.32 1 2 C5.8788696 4.07351958 10.77411334 4.5587029 16 5 C12.41699824 7.27770283 9.72648795 7.11585328 5.5625 6.75 C4.45003906 6.66234375 3.33757812 6.5746875 2.19140625 6.484375 C-0.83187112 6.02551772 -3.22917673 5.26370258 -6 4 C-6 3.34 -6 2.68 -6 2 C-4.02 2 -2.04 2 0 2 C0 1.34 0 0.68 0 0 Z " fill="#12AEF1" transform="translate(259,58)"/>
<path d="M0 0 C0.66 0.33 1.32 0.66 2 1 C-4.94841579 7.70422226 -12.92911684 12.77704566 -21 18 C-21.33 17.34 -21.66 16.68 -22 16 C-20.37191406 14.89591797 -20.37191406 14.89591797 -18.7109375 13.76953125 C-17.2655148 12.78401577 -15.82020848 11.7983296 -14.375 10.8125 C-13.66214844 10.32974609 -12.94929687 9.84699219 -12.21484375 9.34960938 C-7.94242423 6.42946943 -3.91866479 3.38093003 0 0 Z " fill="#4EACC9" transform="translate(710,93)"/>
<path d="M0 0 C0.66 0 1.32 0 2 0 C2.88639389 2.65918166 3.17989025 4.48064641 3.31640625 7.23046875 C3.35830078 8.03291016 3.40019531 8.83535156 3.44335938 9.66210938 C3.48267578 10.49548828 3.52199219 11.32886719 3.5625 12.1875 C3.62727539 13.4549707 3.62727539 13.4549707 3.69335938 14.74804688 C3.79931518 16.83184433 3.9001502 18.91590103 4 21 C3.34 21.33 2.68 21.66 2 22 C1.66198848 19.45887768 1.32946621 16.91723254 1 14.375 C0.90460938 13.66214844 0.80921875 12.94929687 0.7109375 12.21484375 C0.18393899 8.11178391 -0.10466984 4.14754258 0 0 Z " fill="#45A5C3" transform="translate(336,128)"/>
<path d="M0 0 C1.95825873 -0.02694851 3.91662226 -0.04637218 5.875 -0.0625 C6.96554688 -0.07410156 8.05609375 -0.08570312 9.1796875 -0.09765625 C12 0 12 0 14 1 C17.30894459 1.27758124 20.61770071 1.44696305 23.93359375 1.62109375 C27 2 27 2 30 4 C26.98968256 4.93423645 26.13349732 5.04449911 23 4 C21.35728178 3.822485 19.71052108 3.68108008 18.0625 3.5625 C11.97498922 3.05792023 6.00876824 2.08011017 0 1 C0 0.67 0 0.34 0 0 Z " fill="#52C6E6" transform="translate(159,97)"/>
<path d="M0 0 C0.7734375 0.07605469 1.546875 0.15210937 2.34375 0.23046875 C4.84746175 0.9062895 5.85166485 1.85246044 7.5 3.8125 C3.84142468 5.12784494 1.41973519 4.46718309 -2.25 3.375 C-3.72726562 2.94380859 -3.72726562 2.94380859 -5.234375 2.50390625 C-5.98203125 2.27574219 -6.7296875 2.04757813 -7.5 1.8125 C-4.24139091 -0.35990606 -3.67949197 -0.42314158 0 0 Z " fill="#10ADF5" transform="translate(298.5,69.1875)"/>
<path d="M0 0 C1.15419155 3.46257466 0.8977049 3.97497688 -0.625 7.125 C-2.57352941 10.84491979 -2.57352941 10.84491979 -5.75 12 C-6.4925 12 -7.235 12 -8 12 C-6.49087042 7.01987239 -3.44338151 3.75740058 0 0 Z " fill="#A6D2DB" transform="translate(760,28)"/>
<path d="M0 0 C0.33 0 0.66 0 1 0 C1.73030908 6.21324498 2.23180249 11.84098757 1 18 C0.01 18.33 -0.98 18.66 -2 19 C-1.85982174 16.02046641 -1.71313658 13.04150696 -1.5625 10.0625 C-1.52318359 9.21236328 -1.48386719 8.36222656 -1.44335938 7.48632812 C-1.40146484 6.67744141 -1.35957031 5.86855469 -1.31640625 5.03515625 C-1.27974854 4.2862915 -1.24309082 3.53742676 -1.20532227 2.76586914 C-1 1 -1 1 0 0 Z " fill="#50C9EE" transform="translate(446,118)"/>
<path d="M0 0 C1.33256282 3.64120668 0.65840377 5.66876554 -0.8125 9.1875 C-1.16957031 10.06792969 -1.52664063 10.94835937 -1.89453125 11.85546875 C-3 14 -3 14 -5 15 C-6.13350534 17.01669827 -6.13350534 17.01669827 -7 19 C-7.66 18.67 -8.32 18.34 -9 18 C-6 12 -3 6 0 0 Z " fill="#1093E7" transform="translate(486,158)"/>
<path d="M0 0 C-2.97735113 1.98490075 -5.07527818 2.68330394 -8.5 3.5625 C-11.37321572 4.30783687 -14.1830113 5.06100377 -17 6 C-19.33299825 6.03954234 -21.66708189 6.04401732 -24 6 C-24 5.67 -24 5.34 -24 5 C-20.5665483 3.96519395 -17.12770974 2.94959041 -13.6875 1.9375 C-12.71103516 1.64294922 -11.73457031 1.34839844 -10.72851562 1.04492188 C-9.79072266 0.77099609 -8.85292969 0.49707031 -7.88671875 0.21484375 C-7.02264404 -0.04176025 -6.15856934 -0.29836426 -5.26831055 -0.56274414 C-3 -1 -3 -1 0 0 Z " fill="#19A5DE" transform="translate(121,68)"/>
<path d="M0 0 C2.58422459 0.11418667 5.16679513 0.24092362 7.75 0.375 C8.47960937 0.4059375 9.20921875 0.436875 9.9609375 0.46875 C13.73942656 0.6748494 16.77946668 0.91512843 20 3 C20.33 2.34 20.66 1.68 21 1 C20.67 2.32 20.34 3.64 20 5 C19.01 4.67 18.02 4.34 17 4 C16.67 4.66 16.34 5.32 16 6 C15.34 5.34 14.68 4.68 14 4 C11.64319825 3.3839535 9.26368079 2.85273616 6.875 2.375 C4.95300781 1.98441406 4.95300781 1.98441406 2.9921875 1.5859375 C1.51105469 1.29589844 1.51105469 1.29589844 0 1 C0 0.67 0 0.34 0 0 Z " fill="#53C8EB" transform="translate(419,50)"/>
<path d="M0 0 C-3.2443646 2.91790883 -5.31856006 3.36193787 -9.640625 3.29296875 C-11.24550781 3.2784668 -11.24550781 3.2784668 -12.8828125 3.26367188 C-13.99398437 3.23853516 -15.10515625 3.21339844 -16.25 3.1875 C-17.93996094 3.16719727 -17.93996094 3.16719727 -19.6640625 3.14648438 C-22.44319264 3.11115645 -25.22135363 3.0618252 -28 3 C-28 2.67 -28 2.34 -28 2 C-26.73542969 1.93941406 -25.47085938 1.87882813 -24.16796875 1.81640625 C-22.50780129 1.73199096 -20.84764563 1.64734345 -19.1875 1.5625 C-18.35412109 1.52318359 -17.52074219 1.48386719 -16.66210938 1.44335938 C-15.85966797 1.40146484 -15.05722656 1.35957031 -14.23046875 1.31640625 C-13.12288208 1.26141968 -13.12288208 1.26141968 -11.99291992 1.20532227 C-0.2482365 -0.00468371 -0.2482365 -0.00468371 0 0 Z " fill="#1798E6" transform="translate(615,158)"/>
<path d="M0 0 C-1.0845666 6.26638478 -1.0845666 6.26638478 -3.69140625 8.35546875 C-5.41659751 9.32087881 -7.20599015 10.16943988 -9 11 C-9 10.01 -9 9.02 -9 8 C-8.34 8 -7.68 8 -7 8 C-6.731875 7.05125 -6.46375 6.1025 -6.1875 5.125 C-4.90422632 1.74796399 -3.8613658 0 0 0 Z " fill="#1FABE9" transform="translate(692,133)"/>
<path d="M0 0 C1.18851563 0.00902344 2.37703125 0.01804688 3.6015625 0.02734375 C4.51679687 0.03894531 5.43203125 0.05054688 6.375 0.0625 C5.385 1.5475 5.385 1.5475 4.375 3.0625 C1.84375 3.42578125 1.84375 3.42578125 -1.125 3.375 C-2.1046875 3.37113281 -3.084375 3.36726562 -4.09375 3.36328125 C-6.625 3.0625 -6.625 3.0625 -8.625 1.0625 C-5.74084117 -0.37957941 -3.20778472 -0.03144887 0 0 Z " fill="#59C4E4" transform="translate(547.625,128.9375)"/>
<path d="M0 0 C2.375 -0.1875 2.375 -0.1875 5 0 C5.66 0.99 6.32 1.98 7 3 C9.56427181 3.92160185 12.13741991 4.51805817 14.78515625 5.15625 C15.51605469 5.4346875 16.24695313 5.713125 17 6 C17.33 6.99 17.66 7.98 18 9 C11.54646385 6.94235079 5.2638737 4.57616518 -1 2 C-0.67 1.34 -0.34 0.68 0 0 Z " fill="#12A1E5" transform="translate(282,98)"/>
<path d="M0 0 C0 4.3089561 -2.55025083 6.40181457 -5.25 9.5 C-5.98669922 10.37205078 -5.98669922 10.37205078 -6.73828125 11.26171875 C-9.2822983 14.22634662 -11.7233063 16.81553753 -15 19 C-13.63055898 16.05043472 -12.12169591 13.47531189 -10 11 C-9.34 11 -8.68 11 -8 11 C-7.73445312 10.41734375 -7.46890625 9.8346875 -7.1953125 9.234375 C-5.96697004 6.93825772 -4.59685061 5.19643982 -2.875 3.25 C-2.33617187 2.63640625 -1.79734375 2.0228125 -1.2421875 1.390625 C-0.62730469 0.70226563 -0.62730469 0.70226563 0 0 Z " fill="#4EA2B9" transform="translate(742,59)"/>
<path d="M0 0 C0.66 0 1.32 0 2 0 C1.75185235 5.21110062 0.07924534 7.44249218 -3.52734375 10.8984375 C-5 12 -5 12 -7 12 C-6.34 10.68 -5.68 9.36 -5 8 C-4.34 8 -3.68 8 -3 8 C-2.814375 6.8553125 -2.814375 6.8553125 -2.625 5.6875 C-2 3 -2 3 0 0 Z " fill="#56D8FE" transform="translate(476,170)"/>
<path d="M0 0 C-0.63679688 0.20625 -1.27359375 0.4125 -1.9296875 0.625 C-4.2859863 1.86368875 -4.2859863 1.86368875 -4.7578125 4.75 C-4.87898438 5.8225 -5.00015625 6.895 -5.125 8 C-5.80926431 13.80926431 -5.80926431 13.80926431 -8 16 C-8.39433889 4.91469562 -8.39433889 4.91469562 -6 0 C-3 -1 -3 -1 0 0 Z " fill="#4EA9C7" transform="translate(498,133)"/>
<path d="M0 0 C4.29 0 8.58 0 13 0 C13 0.66 13 1.32 13 2 C11.02 2 9.04 2 7 2 C7 2.66 7 3.32 7 4 C4.03 4 1.06 4 -2 4 C-2 3.34 -2 2.68 -2 2 C-1.34 2 -0.68 2 0 2 C0 1.34 0 0.68 0 0 Z " fill="#4DCAEA" transform="translate(46,106)"/>
<path d="M0 0 C0 0.99 0 1.98 0 3 C-2.24307028 4.20250158 -4.4928791 5.3869162 -6.75 6.5625 C-7.70132813 7.07586914 -7.70132813 7.07586914 -8.671875 7.59960938 C-12.53245995 9.59022349 -13.62225259 10.09443685 -18 9 C-12.06 6.03 -6.12 3.06 0 0 Z " fill="#5CB7D0" transform="translate(686,94)"/>
<path d="M0 0 C0.33 1.32 0.66 2.64 1 4 C-2.08809695 5.76462683 -3.23312136 6 -7 6 C-7 6.66 -7 7.32 -7 8 C-8.98 8.66 -10.96 9.32 -13 10 C-11.63603413 5.90810238 -9.65151017 5.38452673 -5.9375 3.3125 C-4.83277344 2.68988281 -3.72804688 2.06726563 -2.58984375 1.42578125 C-1.73519531 0.95527344 -0.88054688 0.48476562 0 0 Z " fill="#5ABBD1" transform="translate(701,85)"/>
<path d="M0 0 C4.81919471 0.67487737 8.91883866 2.57965909 13.3125 4.5625 C14.42334961 5.0565332 14.42334961 5.0565332 15.55664062 5.56054688 C17.37311562 6.36917123 19.18683931 7.18397116 21 8 C17.06777704 9.31074099 15.84525597 8.30421778 12.125 6.625 C8.40143534 4.95452864 5.03892738 3.64086302 1 3 C0.67 2.01 0.34 1.02 0 0 Z " fill="#1D8BB9" transform="translate(325,76)"/>
<path d="M0 0 C2.16874252 0.50603992 3.99967627 0.99983813 6 2 C6.33 1.34 6.66 0.68 7 0 C7 0.66 7 1.32 7 2 C7.99 2 8.98 2 10 2 C10.33 1.34 10.66 0.68 11 0 C11 0.99 11 1.98 11 3 C6.05 4.485 6.05 4.485 1 6 C0 3 0 3 0 0 Z " fill="#069EF8" transform="translate(608,176)"/>
<path d="M0 0 C2.40502575 0.42946888 3.80609319 0.83482012 5.6875 2.4375 C9.14853111 4.77603454 12.93504034 5.26170605 17 6 C13.71412446 7.06486707 11.37049822 6.92821001 8 6.25 C7.154375 6.09015625 6.30875 5.9303125 5.4375 5.765625 C2.78672331 4.93300924 1.11214029 3.77967377 -1 2 C-0.67 1.34 -0.34 0.68 0 0 Z " fill="#5ABDDD" transform="translate(224,120)"/>
<path d="M0 0 C1.9581636 1.52301613 2.89113011 2.78226023 4 5 C3.01 5.33 2.02 5.66 1 6 C0.34 5.67 -0.32 5.34 -1 5 C-2.2375 5.7425 -2.2375 5.7425 -3.5 6.5 C-4.7375 7.2425 -4.7375 7.2425 -6 8 C-6.66 7.67 -7.32 7.34 -8 7 C-7.34 6.38125 -6.68 5.7625 -6 5.125 C-3.7715451 3.24362573 -3.7715451 3.24362573 -4 1 C-2.1875 0.3125 -2.1875 0.3125 0 0 Z " fill="#50CBE9" transform="translate(730,65)"/>
<path d="M0 0 C5.28 0.33 10.56 0.66 16 1 C16 1.99 16 2.98 16 4 C15.38511719 3.9278125 14.77023437 3.855625 14.13671875 3.78125 C13.32847656 3.6884375 12.52023437 3.595625 11.6875 3.5 C10.88699219 3.4071875 10.08648437 3.314375 9.26171875 3.21875 C6.88103445 2.95186537 6.88103445 2.95186537 4 3 C2.68 3 1.36 3 0 3 C0 2.01 0 1.02 0 0 Z " fill="#0881EC" transform="translate(500,156)"/>
<path d="M0 0 C3.40320742 1.01176437 4.75725331 1.64843582 6.8125 4.625 C7.204375 5.40875 7.59625 6.1925 8 7 C6.02 7.33 4.04 7.66 2 8 C1.33333333 5.33333333 0.66666667 2.66666667 0 0 Z " fill="#5CCCF1" transform="translate(473,79)"/>
<path d="M0 0 C0 0.33 0 0.66 0 1 C-7.35575165 1.70776992 -14.6094524 2.14715692 -22 2 C-21.67 1.34 -21.34 0.68 -21 0 C-13.95273016 -1.49076862 -7.11895448 -0.70538421 0 0 Z " fill="#16A3D9" transform="translate(127,75)"/>
<path d="M0 0 C7.08076251 -0.40850553 13.19925959 1.09579269 20 3 C20 3.66 20 4.32 20 5 C6.3667426 3.07289294 6.3667426 3.07289294 0 1 C0 0.67 0 0.34 0 0 Z " fill="#58AFCD" transform="translate(419,48)"/>
<path d="M0 0 C0.66 0 1.32 0 2 0 C2 4.29 2 8.58 2 13 C-1.10947117 8.85403844 -1.72016345 7.03705788 -2 2 C-1.34 1.34 -0.68 0.68 0 0 Z " fill="#4CC8F1" transform="translate(401,141)"/>
<path d="M0 0 C0.33 0.99 0.66 1.98 1 3 C-3.62 3.33 -8.24 3.66 -13 4 C-8.19183282 0.39387462 -5.83154185 -0.12958982 0 0 Z " fill="#1BB6F3" transform="translate(113,72)"/>
<path d="M0 0 C-1 2 -1 2 -2.890625 2.6328125 C-6.97875601 3.48563453 -10.79614144 4.27121668 -15 4 C-15 3.01 -15 2.02 -15 1 C-9.9752761 0.37470103 -5.07471573 -0.13012092 0 0 Z " fill="#0B8CE8" transform="translate(576,191)"/>
<path d="M0 0 C6.28260706 -0.23268915 11.88019467 0.59545452 18 2 C18 2.66 18 3.32 18 4 C16.5629191 4.05422947 15.12524538 4.09289723 13.6875 4.125 C12.88699219 4.14820312 12.08648437 4.17140625 11.26171875 4.1953125 C9 4 9 4 6 2 C4.0103005 1.60986284 2.00980131 1.26797351 0 1 C0 0.67 0 0.34 0 0 Z " fill="#11A5E0" transform="translate(206,79)"/>
<path d="M0 0 C0 0.66 0 1.32 0 2 C-5.19230769 6.73076923 -5.19230769 6.73076923 -9 8 C-9 6.68 -9 5.36 -9 4 C-7.68 3.67 -6.36 3.34 -5 3 C-5 2.34 -5 1.68 -5 1 C-3 0 -3 0 0 0 Z " fill="#36A9D6" transform="translate(707,125)"/>
<path d="M0 0 C0.99 0.33 1.98 0.66 3 1 C1.73548068 2.31858428 0.46314525 3.62967631 -0.8125 4.9375 C-1.52019531 5.66839844 -2.22789062 6.39929688 -2.95703125 7.15234375 C-5 9 -5 9 -8 10 C-7.34 8.68 -6.68 7.36 -6 6 C-5.34 6 -4.68 6 -4 6 C-4.33 5.01 -4.66 4.02 -5 3 C-2.6875 1.4375 -2.6875 1.4375 0 0 Z " fill="#4491AD" transform="translate(711,121)"/>
<path d="M0 0 C0.8971875 0.309375 0.8971875 0.309375 1.8125 0.625 C-0.28586004 1.65771642 -2.39140891 2.67583717 -4.5 3.6875 C-5.67175781 4.25597656 -6.84351563 4.82445313 -8.05078125 5.41015625 C-11.1875 6.625 -11.1875 6.625 -14.1875 5.625 C-13.8575 4.965 -13.5275 4.305 -13.1875 3.625 C-11.4453125 3.0625 -11.4453125 3.0625 -9.3125 2.625 C-5.92408598 1.92481113 -3.25714725 -0.5583681 0 0 Z " fill="#57B6D4" transform="translate(671.1875,119.375)"/>
<path d="M0 0 C4.84688192 0.78175515 9.3766367 2.39844278 14 4 C13.01 5.485 13.01 5.485 12 7 C9.41210938 5.87695312 9.41210938 5.87695312 6.82421875 4.75390625 C5.24288979 4.10038058 3.62324594 3.54108198 2 3 C2 2.34 2 1.68 2 1 C1.34 0.67 0.68 0.34 0 0 Z " fill="#14A0E0" transform="translate(333,81)"/>
<path d="M0 0 C0.99 0.33 1.98 0.66 3 1 C1.02 3.97 -0.96 6.94 -3 10 C-4 7 -4 7 -3.1875 5 C-2.17840313 3.30046843 -1.09638343 1.64457514 0 0 Z " fill="#018CEF" transform="translate(490,155)"/>
<path d="M0 0 C-3.4019487 2.09350689 -6.05272412 2.17942163 -10 2 C-10.33 1.01 -10.66 0.02 -11 -1 C-6.74938644 -2.41687119 -4.28148375 -1.19320039 0 0 Z " fill="#11ADF1" transform="translate(252,60)"/>
<path d="M0 0 C1.9453125 -0.29296875 1.9453125 -0.29296875 4.125 -0.1875 C5.40375 -0.125625 6.6825 -0.06375 8 0 C7.01 1.485 7.01 1.485 6 3 C4.0546875 3.29296875 4.0546875 3.29296875 1.875 3.1875 C0.59625 3.125625 -0.6825 3.06375 -2 3 C-1.34 2.01 -0.68 1.02 0 0 Z " fill="#0A94EC" transform="translate(578,161)"/>
<path d="M0 0 C2.97 0.99 5.94 1.98 9 3 C9 3.99 9 4.98 9 6 C5.51669784 5.35494404 2.90567134 4.01782732 0 2 C0 1.34 0 0.68 0 0 Z " fill="#57CAED" transform="translate(311,138)"/>
<path d="M0 0 C-0.33 0.99 -0.66 1.98 -1 3 C-2.65 3 -4.3 3 -6 3 C-6.66 1.68 -7.32 0.36 -8 -1 C-4.37673261 -2.2077558 -3.35853631 -1.54311128 0 0 Z " fill="#59CFF5" transform="translate(238,122)"/>
<path d="M0 0 C0.66 0.33 1.32 0.66 2 1 C2 1.66 2 2.32 2 3 C0.35 3 -1.3 3 -3 3 C-2.01 2.67 -1.02 2.34 0 2 C0 1.34 0 0.68 0 0 Z M-7.4375 1.9375 C-6.303125 1.958125 -5.16875 1.97875 -4 2 C-3.67 2.66 -3.34 3.32 -3 4 C-6.375 4.625 -6.375 4.625 -10 5 C-10.66 4.34 -11.32 3.68 -12 3 C-11 2 -11 2 -7.4375 1.9375 Z " fill="#53C9ED" transform="translate(400,110)"/>
<path d="M0 0 C-4.74963401 3.68096635 -8.00708997 4.58669586 -14 5 C-11.75043698 2.75043698 -9.93676737 1.99489035 -7 0.8125 C-6.113125 0.44769531 -5.22625 0.08289063 -4.3125 -0.29296875 C-2 -1 -2 -1 0 0 Z " fill="#5EB5CD" transform="translate(667,105)"/>
<path d="M0 0 C5.05255964 0.63156995 9.29593201 2.13459373 14 4 C13.67 4.66 13.34 5.32 13 6 C7.5443665 5.36562401 3.90304767 3.90304767 0 0 Z " fill="#0CA8F1" transform="translate(308,73)"/>
<path d="M0 0 C0.66 0.66 1.32 1.32 2 2 C-2.625 7.875 -2.625 7.875 -6 9 C-6.33 8.34 -6.66 7.68 -7 7 C-6.34 7 -5.68 7 -5 7 C-4.731875 6.401875 -4.46375 5.80375 -4.1875 5.1875 C-3.01506533 3.02775192 -1.80630718 1.64209744 0 0 Z " fill="#64D6F8" transform="translate(738,60)"/>
<path d="M0 0 C0.66 0.33 1.32 0.66 2 1 C1.67 1.66 1.34 2.32 1 3 C2.32 3.33 3.64 3.66 5 4 C0.545 4.495 0.545 4.495 -4 5 C-4 4.01 -4 3.02 -4 2 C-2.125 0.9375 -2.125 0.9375 0 0 Z " fill="#7FB7CA" transform="translate(26,113)"/>
<path d="M0 0 C1.875 0.6875 1.875 0.6875 4 2 C4.68753301 3.65816784 5.35561283 5.32459336 6 7 C6.99 7.33 7.98 7.66 9 8 C8.34 8.66 7.68 9.32 7 10 C5.83043409 8.52312468 4.66441854 7.04343707 3.5 5.5625 C2.8503125 4.73878906 2.200625 3.91507813 1.53125 3.06640625 C0 1 0 1 0 0 Z " fill="#52C7EC" transform="translate(351,170)"/>
<path d="M0 0 C1.32 0.66 2.64 1.32 4 2 C3.67 2.66 3.34 3.32 3 4 C2.01 4.33 1.02 4.66 0 5 C-0.66 5.99 -1.32 6.98 -2 8 C-2.33 7.01 -2.66 6.02 -3 5 C-1.5625 2.3125 -1.5625 2.3125 0 0 Z " fill="#1399E2" transform="translate(490,151)"/>
<path d="M0 0 C-0.33 0.99 -0.66 1.98 -1 3 C-2.32 3 -3.64 3 -5 3 C-5 2.34 -5 1.68 -5 1 C-6.32 0.34 -7.64 -0.32 -9 -1 C-5.38055101 -2.34053666 -3.42632833 -1.61798838 0 0 Z " fill="#56D3F9" transform="translate(323,144)"/>
<path d="M0 0 C1.95825873 -0.02694851 3.91662226 -0.04637218 5.875 -0.0625 C6.96554687 -0.07410156 8.05609375 -0.08570313 9.1796875 -0.09765625 C12 0 12 0 14 1 C14 1.99 14 2.98 14 4 C13.360625 3.690625 12.72125 3.38125 12.0625 3.0625 C8.07950896 1.68064597 4.18349151 1.3463457 0 1 C0 0.67 0 0.34 0 0 Z " fill="#4EBBDF" transform="translate(389,136)"/>
<path d="M0 0 C6.75 1.75 6.75 1.75 9 4 C8.01 4.99 7.02 5.98 6 7 C5.67 6.01 5.34 5.02 5 4 C4.34 3.835 3.68 3.67 3 3.5 C2.34 3.335 1.68 3.17 1 3 C0.67 2.01 0.34 1.02 0 0 Z " fill="#07A8F1" transform="translate(336,84)"/>
<path d="M0 0 C0.66 0.33 1.32 0.66 2 1 C1.67 1.66 1.34 2.32 1 3 C3.64 2.67 6.28 2.34 9 2 C5.46588679 4.12046792 2.05606165 4.53199289 -2 5 C-1.67 4.01 -1.34 3.02 -1 2 C-1.66 1.67 -2.32 1.34 -3 1 C-2.01 0.67 -1.02 0.34 0 0 Z " fill="#54A3BB" transform="translate(69,82)"/>
<path d="M0 0 C-0.1875 2.375 -0.1875 2.375 -1 5 C-3.5625 6.3125 -3.5625 6.3125 -6 7 C-5.37162381 3.35541809 -4.14650034 0 0 0 Z " fill="#54C9ED" transform="translate(369,65)"/>
<path d="M0 0 C0.33 0.66 0.66 1.32 1 2 C1.66 2.33 2.32 2.66 3 3 C2 4 2 4 -0.94140625 4.09765625 C-2.73384766 4.08025391 -2.73384766 4.08025391 -4.5625 4.0625 C-6.35880859 4.04896484 -6.35880859 4.04896484 -8.19140625 4.03515625 C-9.11824219 4.02355469 -10.04507813 4.01195312 -11 4 C-11 3.67 -11 3.34 -11 3 C-5.555 2.505 -5.555 2.505 0 2 C0 1.34 0 0.68 0 0 Z " fill="#17ABE4" transform="translate(171,56)"/>
<path d="M0 0 C1.6254308 0.14095064 3.25034051 0.28792087 4.875 0.4375 C5.77992188 0.51871094 6.68484375 0.59992188 7.6171875 0.68359375 C10 1 10 1 12 2 C12 2.66 12 3.32 12 4 C10.5608866 3.71640113 9.12374482 3.42278601 7.6875 3.125 C6.88699219 2.96257812 6.08648437 2.80015625 5.26171875 2.6328125 C3 2 3 2 0 0 Z " fill="#50AECA" transform="translate(303,143)"/>
<path d="M0 0 C0.33 0.99 0.66 1.98 1 3 C-1.64738916 4.4606285 -2.89448334 5 -6 5 C-3.74193548 0 -3.74193548 0 0 0 Z " fill="#389EC6" transform="translate(76,80)"/>
<path d="M0 0 C1 3 1 3 0.22265625 5.04296875 C-0.16019531 5.75066406 -0.54304687 6.45835938 -0.9375 7.1875 C-1.31777344 7.90292969 -1.69804688 8.61835937 -2.08984375 9.35546875 C-2.54037109 10.16951172 -2.54037109 10.16951172 -3 11 C-4.3968009 6.80959731 -2.86445675 4.87233324 -1 1 C-0.67 0.67 -0.34 0.34 0 0 Z " fill="#96B1B9" transform="translate(760,28)"/>
<path d="M0 0 C0.66 0.33 1.32 0.66 2 1 C0.8803014 2.00593243 -0.2459412 3.0045849 -1.375 4 C-2.00148438 4.556875 -2.62796875 5.11375 -3.2734375 5.6875 C-5 7 -5 7 -7 7 C-6.67 6.01 -6.34 5.02 -6 4 C-5.34 4 -4.68 4 -4 4 C-4 3.34 -4 2.68 -4 2 C-2.125 0.9375 -2.125 0.9375 0 0 Z " fill="#2C8CB0" transform="translate(701,131)"/>
<path d="M0 0 C1.65 0 3.3 0 5 0 C5.66 1.32 6.32 2.64 7 4 C4.36 3.34 1.72 2.68 -1 2 C-0.67 1.34 -0.34 0.68 0 0 Z " fill="#14ABEB" transform="translate(282,98)"/>
<path d="M0 0 C0 0.66 0 1.32 0 2 C-3 2 -6 2 -9 2 C-8 0 -8 0 -6.1875 -0.6875 C-3.81180233 -1.02688538 -2.26664171 -0.72856341 0 0 Z " fill="#29B0E7" transform="translate(94,77)"/>
<path d="M0 0 C3.77545388 1.09068668 6.47043472 1.9083091 9 5 C7 6 7 6 4.5 5.3125 C1.70348499 3.84432962 1.06588569 2.90696099 0 0 Z " fill="#4CBDDE" transform="translate(462,66)"/>
<path d="M0 0 C0.33 1.32 0.66 2.64 1 4 C-0.175625 4.2165625 -0.175625 4.2165625 -1.375 4.4375 C-3.96421018 4.87798925 -3.96421018 4.87798925 -6 6 C-4.95125002 3.37812506 -4.35068687 2.20628639 -1.875 0.75 C-1.25625 0.5025 -0.6375 0.255 0 0 Z " fill="#6EC5DB" transform="translate(747,47)"/>
<path d="M0 0 C1.65 0 3.3 0 5 0 C5.66 1.32 6.32 2.64 7 4 C4.36 3.34 1.72 2.68 -1 2 C-0.67 1.34 -0.34 0.68 0 0 Z " fill="#148EDD" transform="translate(465,187)"/>
<path d="M0 0 C8.03571429 0.80357143 8.03571429 0.80357143 12 3 C10.56344146 3.08131463 9.1255517 3.13933559 7.6875 3.1875 C6.48673828 3.23970703 6.48673828 3.23970703 5.26171875 3.29296875 C2.52148416 2.93801608 1.70828921 2.10633718 0 0 Z " fill="#53B2C7" transform="translate(215,104)"/>
<path d="M0 0 C3.55780196 0.60990891 6.6828589 1.5783681 10 3 C6.67465243 4.10844919 4.37817425 3.84454356 1 3 C0.67 2.01 0.34 1.02 0 0 Z " fill="#2D92C2" transform="translate(325,76)"/>
<path d="M0 0 C-3.20336822 2.83374881 -5.78087253 3.5205537 -10 4 C-9.34 3.67 -8.68 3.34 -8 3 C-8 2.34 -8 1.68 -8 1 C-5.29120665 -0.35439668 -2.99066732 -0.06501451 0 0 Z " fill="#1A7EBF" transform="translate(625,178)"/>
<path d="M0 0 C1.32 0 2.64 0 4 0 C3.67 1.65 3.34 3.3 3 5 C2.67 4.34 2.34 3.68 2 3 C-0.02463255 2.34786708 -0.02463255 2.34786708 -2 2 C-1.34 1.34 -0.68 0.68 0 0 Z " fill="#09A4F7" transform="translate(636,155)"/>
<path d="M0 0 C2.31 0 4.62 0 7 0 C6.01 1.485 6.01 1.485 5 3 C3.35 2.67 1.7 2.34 0 2 C0 1.34 0 0.68 0 0 Z " fill="#51CAEC" transform="translate(554,129)"/>
<path d="M0 0 C0.33 0 0.66 0 1 0 C1 3.63 1 7.26 1 11 C0.01 9.68 -0.98 8.36 -2 7 C-1.1875 3.25 -1.1875 3.25 0 0 Z " fill="#25B2E4" transform="translate(336,117)"/>
<path d="M0 0 C0 0.66 0 1.32 0 2 C-5.75 1.25 -5.75 1.25 -8 -1 C-4.37673261 -2.2077558 -3.35853631 -1.54311128 0 0 Z " fill="#13ACF0" transform="translate(281,97)"/>
<path d="M0 0 C2.64 0.33 5.28 0.66 8 1 C4.5980513 3.09350689 1.94727588 3.17942163 -2 3 C-1.34 2.01 -0.68 1.02 0 0 Z " fill="#6C9FAC" transform="translate(59,86)"/>
<path d="M0 0 C0.66 0.33 1.32 0.66 2 1 C2.99 1 3.98 1 5 1 C5.99 1.33 6.98 1.66 8 2 C5 4 5 4 2.3125 3.625 C1.549375 3.41875 0.78625 3.2125 0 3 C0 2.01 0 1.02 0 0 Z " fill="#28A3D6" transform="translate(84,77)"/>
<path d="M0 0 C0.66 0 1.32 0 2 0 C0.50902342 3.7952131 -1.75700849 5.61042731 -5 8 C-3.63055898 5.05043472 -2.12169591 2.47531189 0 0 Z " fill="#3FA6C1" transform="translate(732,70)"/>
<path d="M0 0 C2.31 0.33 4.62 0.66 7 1 C7 2.32 7 3.64 7 5 C6.34 5 5.68 5 5 5 C5 4.34 5 3.68 5 3 C3.35 2.67 1.7 2.34 0 2 C0 1.34 0 0.68 0 0 Z " fill="#0DABF1" transform="translate(282,65)"/>
</svg>
